<svg width="746" height="62" viewBox="0 0 746 62" fill="none" xmlns="http://www.w3.org/2000/svg">
  <path
    d="M17.6544 0H37.8166C46.1534 0 52.0382 2.95718 55.471 8.87154C55.0698 8.98356 54.1559 9.12918 52.7292 9.3084C53.398 10.6974 53.9998 12.6688 54.5348 15.2228H56.8085C57.1206 15.2228 57.2766 15.4468 57.2766 15.8949H59.9849C60.2747 15.9621 60.4196 16.1189 60.4196 16.3653V17.2726C60.4196 17.5863 60.2747 17.7431 59.9849 17.7431C59.8289 17.7431 59.7509 17.6647 59.7509 17.5079C59.5948 17.5079 59.5168 17.5863 59.5168 17.7431L58.4134 17.5079H57.4772C57.4772 23.131 55.1478 27.3763 50.489 30.2439V30.6808C56.5076 33.3467 59.5168 38.0513 59.5168 44.7946V46.6092H59.7509C59.9515 46.6092 60.7094 46.5308 62.0246 46.374L62.2586 46.8444C62.1472 48.8159 61.8462 49.8016 61.3558 49.8016H60.4196C60.0852 49.8016 59.7843 49.7232 59.5168 49.5664C59.0041 49.5664 58.3243 50.933 57.4772 53.6661L55.6716 55.4808L54.1001 55.2455H53.4314C49.3076 59.5021 45.0834 61.6304 40.759 61.6304H7.48976C7.17769 61.6304 7.02165 61.4735 7.02165 61.1599V55.716C7.06623 55.4023 7.22227 55.2455 7.48976 55.2455H9.73C10.0421 55.2455 10.1981 55.0999 10.1981 54.8087V54.3382C10.1981 53.8902 10.1201 53.6661 9.96405 53.6661L10.1981 52.5236V39.1154C10.1981 38.8018 10.0421 38.645 9.73 38.645H8.39254C7.09967 38.645 5.06005 38.5666 2.27368 38.4098L2.03962 37.9729V37.7377L2.27368 37.3008C5.06005 37.144 7.09967 37.0656 8.39254 37.0656H9.96405L10.1981 35.923V19.0873L9.96405 17.7431C10.1201 17.4743 10.1981 17.0934 10.1981 16.6005V15.8949C10.1981 15.7156 9.66313 15.346 8.59316 14.7859V9.54363C8.59316 9.34201 9.05012 9.11798 9.96405 8.87154C10.1201 8.5579 10.1981 8.32267 10.1981 8.16585C10.1981 7.69539 10.1201 6.26161 9.96405 3.8645C10.1201 1.5794 10.2761 0.358446 10.4322 0.201626C13.6644 0.0672087 16.0718 0 17.6544 0ZM4.98203 9.3084H5.45014V14.9875H4.98203V9.3084ZM6.58697 9.3084H7.02165V14.9875H6.58697V9.3084ZM27.6185 12.2656H23.5392V14.7859C23.5838 15.0771 23.7399 15.2228 24.0074 15.2228H26.047C26.1138 15.2228 26.3368 15.3796 26.7157 15.6932L26.4816 17.2726V24.7664C26.5262 25.08 26.6823 25.2369 26.9498 25.2369H35.9776C39.2989 23.8927 40.9596 21.9212 40.9596 19.3225V17.5079H43.7014V17.2726C43.7014 16.6229 43.3893 16.1637 42.7652 15.8949L42.3305 16.1301C42.1745 16.1301 42.0965 16.0517 42.0965 15.8949L41.6618 16.1301H40.5249C39.99 15.5252 39.455 15.2228 38.92 15.2228H37.1144C35.3089 13.2513 33.8822 12.2656 32.8346 12.2656H28.2872C28.1535 12.2656 28.0866 12.1872 28.0866 12.0304L27.6185 12.2656ZM26.7157 36.5951V37.3008H29.19C31.4414 37.3008 34.4618 37.2224 38.2513 37.0656C38.1621 36.6175 37.5602 36.3935 36.4457 36.3935H32.8346C31.5417 36.3935 29.5021 36.4607 26.7157 36.5951ZM18.5572 37.3008C18.5572 37.592 18.4903 37.7377 18.3566 37.7377C18.4903 38.0289 18.5572 38.2529 18.5572 38.4098H26.047V37.7377L24.442 37.3008H18.5572ZM42.9992 37.3008V38.2081L43.2333 38.645L44.8048 38.4098H50.6896C51.0017 38.4098 51.1577 38.2641 51.1577 37.9729V37.7377C51.1577 37.4464 51.0017 37.3008 50.6896 37.3008H42.9992ZM0.46811 37.3008C0.757892 37.3456 0.902783 37.4912 0.902783 37.7377V37.9729C0.902783 38.2641 0.757892 38.4098 0.46811 38.4098C0.156037 38.4098 0 38.2641 0 37.9729V37.7377C0.0445819 37.4464 0.200619 37.3008 0.46811 37.3008ZM28.0866 38.645H26.7157L26.4816 40.258C26.4816 40.7061 26.5597 40.9301 26.7157 40.9301L26.4816 42.0726V43.2152C26.4816 44.5145 26.5597 45.8699 26.7157 47.2813C26.5597 47.8638 26.4816 48.5471 26.4816 49.3312L26.9498 49.5664H40.759C41.985 49.5664 43.3336 48.6591 44.8048 46.8444C42.9992 46.6876 42.0965 46.4636 42.0965 46.1724C42.6091 46.1724 42.9881 44.7274 43.2333 41.8374C42.0296 39.7091 41.3497 38.645 41.1937 38.645C40.0791 38.645 36.3788 38.5666 30.0928 38.4098L28.5213 38.645V38.4098L28.0866 38.645Z"
    fill="white" />
  <path
    d="M95.1935 0.100813C100.387 0.100813 104.779 1.20976 108.367 3.42764C108.1 3.56206 107.81 3.62927 107.498 3.62927V4.06612C108.033 4.06612 110.073 5.46631 113.617 8.26667C114.486 8.26667 115.367 8.5579 116.258 9.14038H118.699L119.769 9.37561V9.61084C119.769 9.90208 119.624 10.0477 119.335 10.0477H118.231C118.097 10.0477 118.031 9.96929 118.031 9.81247C117.785 9.96929 117.418 10.0477 116.927 10.0477V10.2493C120.249 13.9682 122.734 18.9752 124.383 25.2705L123.748 25.7073H118.465V25.9425C120.627 25.9425 121.876 26.0098 122.21 26.1442C122.455 26.0098 122.823 25.9425 123.314 25.9425H123.748C124.328 25.9425 124.618 27.3427 124.618 30.1431C124.662 30.4343 124.807 30.5799 125.052 30.5799H127.259C127.393 30.5799 127.46 30.6472 127.46 30.7816L127.928 30.5799H128.128C129.02 30.6696 129.466 30.8824 129.466 31.2184C129.466 36.1247 128.073 41.0645 125.286 46.0379L124.852 46.2396H120.672L119.769 46.9117H117.596C117.306 46.9565 117.161 47.1021 117.161 47.3485C118.766 47.3485 119.569 47.4269 119.569 47.5837C116.158 53.2293 110.886 57.4186 103.753 60.1518C100.276 61.0479 97.1217 61.4959 94.2907 61.4959H91.8833C90.1669 61.4959 88.9966 61.3391 88.3725 61.0255C88.0827 61.1823 87.8598 61.2607 87.7037 61.2607C81.2616 60.163 76.2127 58.0235 72.557 54.8423C69.7261 52.4452 67.4524 50.0257 65.736 47.5837C65.4908 47.4269 65.201 47.3485 64.8667 47.3485H62.8939V46.9117H65.0673C65.0673 46.4636 65.2233 46.2396 65.5354 46.2396H68.3775L69.4809 46.0379C67.2072 41.6918 65.9589 37.7153 65.736 34.1084V33.4363L65.9701 32.9995C66.1038 32.9995 66.1707 33.0779 66.1707 33.2347C68.3775 33.0779 69.9936 32.9995 71.019 32.9995H74.2957V32.7642C74.2957 32.473 74.1508 32.3274 73.8611 32.3274H65.9701C65.7917 32.3274 65.4239 31.8121 64.8667 30.7816H61.1218C60.832 30.7816 60.6871 30.636 60.6871 30.3447C60.6871 30.0535 61.2778 29.8294 62.4592 29.6726V28.7989C62.3032 28.7989 62.0803 28.7317 61.7905 28.5973C61.5007 28.7317 61.2778 28.7989 61.1218 28.7989C60.988 28.5077 60.9212 28.2836 60.9212 28.1268C61.3447 23.019 63.2394 17.8775 66.6054 12.7024C67.8982 10.9326 69.0796 10.0477 70.1496 10.0477C72.0443 10.0477 72.9917 9.82367 72.9917 9.37561C72.5013 9.08437 72.0666 8.93875 71.6877 8.93875H71.4536L70.3502 9.14038L70.1496 8.70352L70.3502 8.26667C69.7707 8.26667 69.4809 8.12105 69.4809 7.82981C70.5731 6.86649 72.6239 5.46631 75.6332 3.62927H78.0406C81.9638 1.27696 87.6814 0.100813 95.1935 0.100813ZM76.9372 27.69V28.1268L78.2747 29.0341V29.471C78.2747 29.7622 78.1186 29.9079 77.8066 29.9079H76.7366V30.5799H80.6821C80.9273 30.5799 81.1502 31.0952 81.3508 32.1257C84.4938 32.2602 86.8344 32.3274 88.3725 32.3274H90.1112V32.7642C90.1112 33.0779 89.9663 33.2347 89.6765 33.2347C89.409 33.0779 89.1972 32.9995 89.0412 32.9995C88.8852 32.9995 88.8071 33.0779 88.8071 33.2347L87.7037 32.9995C87.1688 32.9995 85.118 33.0779 81.5514 33.2347V34.31C82.2647 37.9169 84.0926 41.1653 87.035 44.0553C88.6622 45.1754 89.4759 45.8363 89.4759 46.0379L89.0412 46.2396H85.965L86.1657 46.6764V46.9117H84.8616V47.3485H87.5031C90.1112 48.0878 91.861 48.4575 92.7526 48.4575C93.5997 48.4575 94.9929 48.2334 96.9322 47.7854C96.9322 47.4941 96.7873 47.3485 96.4975 47.3485H95.3941V46.9117H97.8015C97.9576 46.9117 98.983 46.6876 100.878 46.2396H103.084C103.419 46.2396 103.709 46.1724 103.954 46.0379C104.244 46.1724 104.467 46.2396 104.623 46.2396C107.498 45.0074 110.062 42.2855 112.313 38.0737C113.182 35.1165 113.617 33.4251 113.617 32.9995V31.2184C113.617 30.972 112.893 30.7592 111.444 30.5799L111.009 30.7816H109.471C108.869 30.7816 108.568 29.3142 108.568 26.3794L107.498 26.1442H100.008V25.7073C102.215 25.5729 103.831 25.5057 104.857 25.5057H108.133V25.2705C106.751 21.35 104.556 18.3368 101.546 16.2309C98.2251 14.1698 95.5167 13.1393 93.4214 13.1393C87.2914 13.1393 82.3093 16.2981 78.4753 22.6157C77.4499 25.2145 76.9372 26.9059 76.9372 27.69ZM61.7905 32.3274H64.1979C64.4877 32.3722 64.6326 32.5178 64.6326 32.7642L64.1979 32.9995H61.7905V32.3274ZM115.824 33.2347L115.623 33.6715V33.8732H115.824C115.824 33.5819 115.969 33.4363 116.258 33.4363V33.2347H115.824ZM88.8071 36.5279H89.0412C89.331 36.5727 89.4759 36.7183 89.4759 36.9648V37.6369C89.4759 37.9281 89.331 38.0737 89.0412 38.0737H88.8071C88.5174 38.0737 88.3725 37.9281 88.3725 37.6369V36.9648C88.417 36.6735 88.5619 36.5279 88.8071 36.5279ZM63.0945 38.9474H64.432L64.6326 40.0564L63.9973 40.4932H63.3286C63.0388 40.4932 62.8159 40.0564 62.6599 39.1827L63.0945 38.9474Z"
    fill="white" />
  <path
    d="M159.993 0.100813C165.187 0.100813 169.578 1.20976 173.167 3.42764C172.9 3.56206 172.61 3.62927 172.298 3.62927V4.06612C172.833 4.06612 174.872 5.46631 178.417 8.26667C179.286 8.26667 180.167 8.5579 181.058 9.14038H183.499L184.569 9.37561V9.61084C184.569 9.90208 184.424 10.0477 184.134 10.0477H183.031C182.897 10.0477 182.83 9.96929 182.83 9.81247C182.585 9.96929 182.217 10.0477 181.727 10.0477V10.2493C185.048 13.9682 187.534 18.9752 189.183 25.2705L188.548 25.7073H183.265V25.9425C185.427 25.9425 186.676 26.0098 187.01 26.1442C187.255 26.0098 187.623 25.9425 188.113 25.9425H188.548C189.128 25.9425 189.417 27.3427 189.417 30.1431C189.462 30.4343 189.607 30.5799 189.852 30.5799H192.059C192.193 30.5799 192.259 30.6472 192.259 30.7816L192.728 30.5799H192.928C193.82 30.6696 194.266 30.8824 194.266 31.2184C194.266 36.1247 192.872 41.0645 190.086 46.0379L189.651 46.2396H185.472L184.569 46.9117H182.396C182.106 46.9565 181.961 47.1021 181.961 47.3485C183.566 47.3485 184.368 47.4269 184.368 47.5837C180.958 53.2293 175.686 57.4186 168.553 60.1518C165.076 61.0479 161.921 61.4959 159.09 61.4959H156.683C154.967 61.4959 153.796 61.3391 153.172 61.0255C152.882 61.1823 152.66 61.2607 152.504 61.2607C146.061 60.163 141.013 58.0235 137.357 54.8423C134.526 52.4452 132.252 50.0257 130.536 47.5837C130.291 47.4269 130.001 47.3485 129.666 47.3485H127.694V46.9117H129.867C129.867 46.4636 130.023 46.2396 130.335 46.2396H133.177L134.281 46.0379C132.007 41.6918 130.759 37.7153 130.536 34.1084V33.4363L130.77 32.9995C130.904 32.9995 130.97 33.0779 130.97 33.2347C133.177 33.0779 134.793 32.9995 135.819 32.9995H139.096V32.7642C139.096 32.473 138.951 32.3274 138.661 32.3274H130.77C130.592 32.3274 130.224 31.8121 129.666 30.7816H125.922C125.632 30.7816 125.487 30.636 125.487 30.3447C125.487 30.0535 126.078 29.8294 127.259 29.6726V28.7989C127.103 28.7989 126.88 28.7317 126.59 28.5973C126.301 28.7317 126.078 28.7989 125.922 28.7989C125.788 28.5077 125.721 28.2836 125.721 28.1268C126.144 23.019 128.039 17.8775 131.405 12.7024C132.698 10.9326 133.879 10.0477 134.949 10.0477C136.844 10.0477 137.791 9.82367 137.791 9.37561C137.301 9.08437 136.866 8.93875 136.487 8.93875H136.253L135.15 9.14038L134.949 8.70352L135.15 8.26667C134.57 8.26667 134.281 8.12105 134.281 7.82981C135.373 6.86649 137.424 5.46631 140.433 3.62927H142.84C146.764 1.27696 152.481 0.100813 159.993 0.100813ZM141.737 27.69V28.1268L143.074 29.0341V29.471C143.074 29.7622 142.918 29.9079 142.606 29.9079H141.536V30.5799H145.482C145.727 30.5799 145.95 31.0952 146.151 32.1257C149.294 32.2602 151.634 32.3274 153.172 32.3274H154.911V32.7642C154.911 33.0779 154.766 33.2347 154.476 33.2347C154.209 33.0779 153.997 32.9995 153.841 32.9995C153.685 32.9995 153.607 33.0779 153.607 33.2347L152.504 32.9995C151.969 32.9995 149.918 33.0779 146.351 33.2347V34.31C147.065 37.9169 148.892 41.1653 151.835 44.0553C153.462 45.1754 154.276 45.8363 154.276 46.0379L153.841 46.2396H150.765L150.965 46.6764V46.9117H149.661V47.3485H152.303C154.911 48.0878 156.661 48.4575 157.552 48.4575C158.399 48.4575 159.793 48.2334 161.732 47.7854C161.732 47.4941 161.587 47.3485 161.297 47.3485H160.194V46.9117H162.601C162.757 46.9117 163.783 46.6876 165.677 46.2396H167.884C168.219 46.2396 168.508 46.1724 168.754 46.0379C169.043 46.1724 169.266 46.2396 169.422 46.2396C172.298 45.0074 174.861 42.2855 177.113 38.0737C177.982 35.1165 178.417 33.4251 178.417 32.9995V31.2184C178.417 30.972 177.692 30.7592 176.243 30.5799L175.809 30.7816H174.271C173.669 30.7816 173.368 29.3142 173.368 26.3794L172.298 26.1442H164.808V25.7073C167.015 25.5729 168.631 25.5057 169.656 25.5057H172.933V25.2705C171.551 21.35 169.355 18.3368 166.346 16.2309C163.025 14.1698 160.316 13.1393 158.221 13.1393C152.091 13.1393 147.109 16.2981 143.275 22.6157C142.25 25.2145 141.737 26.9059 141.737 27.69ZM126.59 32.3274H128.998C129.287 32.3722 129.432 32.5178 129.432 32.7642L128.998 32.9995H126.59V32.3274ZM180.624 33.2347L180.423 33.6715V33.8732H180.624C180.624 33.5819 180.768 33.4363 181.058 33.4363V33.2347H180.624ZM153.607 36.5279H153.841C154.131 36.5727 154.276 36.7183 154.276 36.9648V37.6369C154.276 37.9281 154.131 38.0737 153.841 38.0737H153.607C153.317 38.0737 153.172 37.9281 153.172 37.6369V36.9648C153.217 36.6735 153.362 36.5279 153.607 36.5279ZM127.894 38.9474H129.232L129.432 40.0564L128.797 40.4932H128.128C127.839 40.4932 127.616 40.0564 127.46 39.1827L127.894 38.9474Z"
    fill="white" />
  <path
    d="M192.694 0.23523C200.853 0.23523 205.066 0.15682 205.333 0C206.983 0.15682 207.807 0.380849 207.807 0.672087V13.845H210.315C210.605 13.8898 210.75 14.0466 210.75 14.3154V18.6168L210.984 19.7593C212.945 19.7593 213.926 18.9977 213.926 17.4743C213.77 17.183 213.692 16.959 213.692 16.8022L213.926 16.3653C213.77 16.0965 213.692 15.794 213.692 15.458C214.606 15.0323 215.063 14.4947 215.063 13.845H213.023C212.711 13.845 212.555 13.6994 212.555 13.4081C212.823 13.4081 216.969 9.01716 224.994 0.23523C237.321 0.23523 243.651 0.23523 243.986 0.23523H244.888V0.470461C242.971 2.64354 238.825 7.03451 232.45 13.6434V13.845H234.724V14.3154C234.724 14.5171 232.918 16.3317 229.307 19.7593H226.565L225.462 19.9946V19.7593L224.994 19.9946H223.188V20.4314H227.936C228.248 20.4762 228.404 20.6331 228.404 20.9019C228.27 20.9243 226.153 23.1198 222.051 27.4883V27.7236C223.835 29.9415 227.156 33.7948 232.015 39.2835C231.636 39.5971 231.335 39.7539 231.113 39.7539C231.113 40.4708 231.937 40.9189 233.587 41.0981L234.256 42.0054V42.4759H232.216V43.148C232.974 43.148 233.353 43.2264 233.353 43.3832L234.49 43.148H236.964C238.123 43.148 238.803 43.4504 239.004 44.0553L238.769 44.5257L237.666 44.2905C237.109 44.2905 236.429 44.3689 235.626 44.5257C235.337 44.3689 235.114 44.2905 234.958 44.2905L234.49 44.5257C234.2 44.3689 233.977 44.2905 233.821 44.2905L233.587 44.7274C235.638 46.8108 238.725 50.4513 242.849 55.6488C243.161 55.6488 244.286 56.8585 246.226 59.278V59.5133L246.025 59.9501C246.159 60.2414 246.226 60.4766 246.226 60.6558H247.363C247.586 60.6558 247.82 60.8799 248.065 61.3279C248.065 61.6191 247.909 61.7648 247.597 61.7648H234.055C232.539 61.7648 230.277 61.6976 227.267 61.5631C226.844 60.8014 226.164 60.4206 225.228 60.4206V59.9501C225.518 59.5693 225.662 59.3453 225.662 59.278V59.0428C225.328 59.0428 223.077 56.3209 218.908 50.877L213.926 44.7274C213.971 44.4361 214.116 44.2905 214.361 44.2905L215.297 44.5257C215.587 44.3689 215.81 44.2905 215.966 44.2905V44.5257L216.401 44.2905H218.908C219.198 44.2905 219.343 44.1337 219.343 43.8201C218.986 43.5288 218.685 43.3832 218.44 43.3832C217.482 43.3832 215.52 43.3048 212.555 43.148L212.121 42.4759C212.277 42.4759 212.355 42.3975 212.355 42.2406C212.644 42.3975 212.867 42.4759 213.023 42.4759L213.458 42.2406C213.726 42.3975 214.027 42.4759 214.361 42.4759H214.829V42.2406C214.829 41.9494 214.45 41.5014 213.692 40.8965L213.257 41.0981C212.5 40.9189 212.121 40.6948 212.121 40.426V40.1908L213.926 38.8466C214.082 38.5554 214.16 38.3201 214.16 38.1409C213.87 37.4688 213.57 37.0992 213.257 37.032H213.023C212.823 37.032 211.92 37.9393 210.315 39.7539C209.713 39.7539 209.412 39.8995 209.412 40.1908V40.426L210.75 41.3333C210.906 41.6246 210.984 41.8486 210.984 42.0054C210.605 42.3191 210.382 42.4759 210.315 42.4759H208.275C207.963 42.5207 207.807 42.6663 207.807 42.9127V61.3279C207.807 61.6191 207.662 61.7648 207.373 61.7648H198.345C196.829 61.7648 194.567 61.6976 191.557 61.5631L191.323 61.0927V42.9127C191.368 42.6215 191.524 42.4759 191.791 42.4759H194.266L194.5 41.3333V41.0981C193.43 41.0981 192.895 40.8741 192.895 40.426V40.1908C192.895 39.7427 193.43 39.5187 194.5 39.5187V38.3762C194.5 38.2193 194.567 38.1409 194.7 38.1409L194.5 37.7041V21.1371C194.5 20.8235 194.266 20.6667 193.797 20.6667C190.788 20.5098 189.139 20.4314 188.849 20.4314L188.615 19.9946L189.083 19.7593C191.802 19.6025 193.608 19.5241 194.5 19.5241V14.9875L194.266 13.845H191.791C191.479 13.845 191.323 13.6994 191.323 13.4081V0.672087C191.368 0.380849 191.524 0.23523 191.791 0.23523H192.694ZM205.099 19.9946V20.4314H206.236V20.2298L206.002 19.7593C205.757 19.9162 205.456 19.9946 205.099 19.9946ZM210.75 21.1371C210.794 21.4284 210.95 21.574 211.218 21.574L211.452 21.1371V20.6667H211.218C210.906 20.7115 210.75 20.8683 210.75 21.1371ZM191.089 39.5187H191.557C191.847 39.5635 191.992 39.7203 191.992 39.9892V40.426C191.992 40.65 191.769 40.8741 191.323 41.0981C191.1 41.0981 190.877 40.8741 190.654 40.426V39.9892C190.699 39.6755 190.844 39.5187 191.089 39.5187ZM219.577 59.7485H221.383C221.628 59.7485 221.929 60.0509 222.285 60.6558H219.811C219.588 60.6558 219.354 60.4206 219.109 59.9501L219.577 59.7485Z"
    fill="white" />
  <path
    d="M300.761 0.100813C305.954 0.100813 310.346 1.20976 313.935 3.42764C313.667 3.56206 313.377 3.62927 313.065 3.62927V4.06612C313.6 4.06612 315.64 5.46631 319.184 8.26667C320.053 8.26667 320.934 8.5579 321.826 9.14038H324.266L325.336 9.37561V9.61084C325.336 9.90208 325.191 10.0477 324.902 10.0477H323.798C323.665 10.0477 323.598 9.96929 323.598 9.81247C323.352 9.96929 322.985 10.0477 322.494 10.0477V10.2493C325.816 13.9682 328.301 18.9752 329.951 25.2705L329.315 25.7073H324.032V25.9425C326.195 25.9425 327.443 26.0098 327.777 26.1442C328.022 26.0098 328.39 25.9425 328.881 25.9425H329.315C329.895 25.9425 330.185 27.3427 330.185 30.1431C330.229 30.4343 330.374 30.5799 330.619 30.5799H332.826C332.96 30.5799 333.027 30.6472 333.027 30.7816L333.495 30.5799H333.695C334.587 30.6696 335.033 30.8824 335.033 31.2184C335.033 36.1247 333.64 41.0645 330.853 46.0379L330.419 46.2396H326.239L325.336 46.9117H323.163C322.873 46.9565 322.728 47.1021 322.728 47.3485C324.333 47.3485 325.136 47.4269 325.136 47.5837C321.725 53.2293 316.453 57.4186 309.32 60.1518C305.843 61.0479 302.689 61.4959 299.858 61.4959H297.45C295.734 61.4959 294.564 61.3391 293.94 61.0255C293.65 61.1823 293.427 61.2607 293.271 61.2607C286.829 60.163 281.78 58.0235 278.124 54.8423C275.293 52.4452 273.02 50.0257 271.303 47.5837C271.058 47.4269 270.768 47.3485 270.434 47.3485H268.461V46.9117H270.634C270.634 46.4636 270.79 46.2396 271.103 46.2396H273.945L275.048 46.0379C272.774 41.6918 271.526 37.7153 271.303 34.1084V33.4363L271.537 32.9995C271.671 32.9995 271.738 33.0779 271.738 33.2347C273.945 33.0779 275.561 32.9995 276.586 32.9995H279.863V32.7642C279.863 32.473 279.718 32.3274 279.428 32.3274H271.537C271.359 32.3274 270.991 31.8121 270.434 30.7816H266.689C266.399 30.7816 266.254 30.636 266.254 30.3447C266.254 30.0535 266.845 29.8294 268.026 29.6726V28.7989C267.87 28.7989 267.647 28.7317 267.358 28.5973C267.068 28.7317 266.845 28.7989 266.689 28.7989C266.555 28.5077 266.488 28.2836 266.488 28.1268C266.912 23.019 268.807 17.8775 272.172 12.7024C273.465 10.9326 274.647 10.0477 275.717 10.0477C277.611 10.0477 278.559 9.82367 278.559 9.37561C278.068 9.08437 277.634 8.93875 277.255 8.93875H277.021L275.917 9.14038L275.717 8.70352L275.917 8.26667C275.338 8.26667 275.048 8.12105 275.048 7.82981C276.14 6.86649 278.191 5.46631 281.2 3.62927H283.608C287.531 1.27696 293.249 0.100813 300.761 0.100813ZM282.504 27.69V28.1268L283.842 29.0341V29.471C283.842 29.7622 283.686 29.9079 283.374 29.9079H282.304V30.5799H286.249C286.494 30.5799 286.717 31.0952 286.918 32.1257C290.061 32.2602 292.402 32.3274 293.94 32.3274H295.678V32.7642C295.678 33.0779 295.533 33.2347 295.244 33.2347C294.976 33.0779 294.764 32.9995 294.608 32.9995C294.452 32.9995 294.374 33.0779 294.374 33.2347L293.271 32.9995C292.736 32.9995 290.685 33.0779 287.119 33.2347V34.31C287.832 37.9169 289.66 41.1653 292.602 44.0553C294.229 45.1754 295.043 45.8363 295.043 46.0379L294.608 46.2396H291.532L291.733 46.6764V46.9117H290.429V47.3485H293.07C295.678 48.0878 297.428 48.4575 298.32 48.4575C299.167 48.4575 300.56 48.2334 302.499 47.7854C302.499 47.4941 302.354 47.3485 302.065 47.3485H300.961V46.9117H303.369C303.525 46.9117 304.55 46.6876 306.445 46.2396H308.652C308.986 46.2396 309.276 46.1724 309.521 46.0379C309.811 46.1724 310.034 46.2396 310.19 46.2396C313.065 45.0074 315.629 42.2855 317.88 38.0737C318.749 35.1165 319.184 33.4251 319.184 32.9995V31.2184C319.184 30.972 318.46 30.7592 317.011 30.5799L316.576 30.7816H315.038C314.436 30.7816 314.135 29.3142 314.135 26.3794L313.065 26.1442H305.575V25.7073C307.782 25.5729 309.398 25.5057 310.424 25.5057H313.701V25.2705C312.318 21.35 310.123 18.3368 307.114 16.2309C303.792 14.1698 301.084 13.1393 298.988 13.1393C292.858 13.1393 287.876 16.2981 284.042 22.6157C283.017 25.2145 282.504 26.9059 282.504 27.69ZM267.358 32.3274H269.765C270.055 32.3722 270.2 32.5178 270.2 32.7642L269.765 32.9995H267.358V32.3274ZM321.391 33.2347L321.19 33.6715V33.8732H321.391C321.391 33.5819 321.536 33.4363 321.826 33.4363V33.2347H321.391ZM294.374 36.5279H294.608C294.898 36.5727 295.043 36.7183 295.043 36.9648V37.6369C295.043 37.9281 294.898 38.0737 294.608 38.0737H294.374C294.084 38.0737 293.94 37.9281 293.94 37.6369V36.9648C293.984 36.6735 294.129 36.5279 294.374 36.5279ZM268.662 38.9474H269.999L270.2 40.0564L269.564 40.4932H268.896C268.606 40.4932 268.383 40.0564 268.227 39.1827L268.662 38.9474Z"
    fill="white" />
  <path
    d="M339.982 0.100813H372.014C372.326 0.145619 372.482 0.302439 372.482 0.571274V11.7615L372.014 12.4336L370.442 12.1984C357.313 12.3552 350.191 12.4336 349.076 12.4336V13.5762C349.076 13.8898 348.92 14.0466 348.608 14.0466H344.529C344.217 14.0914 344.061 14.237 344.061 14.4835V15.8612C344.105 16.1749 344.261 16.3317 344.529 16.3317H344.763C345.209 16.3317 345.432 16.2533 345.432 16.0965C347.103 16.2533 348.084 16.4773 348.374 16.7686H353.39C353.702 16.8134 353.858 16.9702 353.858 17.239V17.4743C352.476 17.6087 351.183 17.6759 349.979 17.6759H347.939V24.7664C347.984 25.08 348.129 25.2369 348.374 25.2369H371.813C372.103 25.2817 372.248 25.4273 372.248 25.6737V36.6287C372.248 36.8528 372.025 37.088 371.579 37.3344H352.721C352.498 37.3344 352.264 37.5584 352.019 38.0065V45.5339L352.253 46.6764H354.526C354.838 46.7436 354.994 46.9005 354.994 47.1469V49.9024C354.994 50.1937 354.838 50.3393 354.526 50.3393H352.253C352.253 50.4961 352.175 50.7313 352.019 51.045V56.052L352.253 57.1946H358.84C359.152 57.2394 359.308 57.3962 359.308 57.665V57.8667C359.308 58.1803 359.074 58.3371 358.606 58.3371C357.424 58.3371 355.307 58.4155 352.253 58.5724C352.253 58.7292 352.175 58.8076 352.019 58.8076L352.253 60.387V61.5295C352.253 61.8432 352.097 62 351.785 62H336.103C335.813 62 335.668 61.8432 335.668 61.5295V58.8076C335.713 58.4939 335.858 58.3371 336.103 58.3371H341.352C342.133 58.1803 342.59 58.1019 342.723 58.1019V57.4298L336.805 57.1946H336.103C335.813 57.1946 335.668 57.049 335.668 56.7577V50.5745C335.713 50.2609 335.858 50.1041 336.103 50.1041H338.377V47.1469C338.377 46.8332 337.474 46.6092 335.668 46.4748V25.4385C335.356 25.4385 335.2 25.3713 335.2 25.2369C335.044 25.2369 334.966 25.3041 334.966 25.4385L333.395 25.2369H331.79C331.5 25.2369 331.355 25.08 331.355 24.7664V18.1463C331.4 17.8327 331.544 17.6759 331.79 17.6759C334.554 17.5415 336.37 17.4743 337.24 17.4743C337.24 17.1606 337.017 17.0038 336.571 17.0038C334.409 17.0038 332.213 16.7798 329.984 16.3317H327.71V14.4835C327.755 14.1922 327.911 14.0466 328.178 14.0466H329.516C329.672 14.0466 329.75 14.1138 329.75 14.2482C330.017 14.1362 330.931 13.9906 332.492 13.8114V0.7729L332.726 0.336043C335.98 0.179223 338.399 0.100813 339.982 0.100813ZM332.492 46.9117L332.726 47.3821V49.6672C332.726 49.9584 332.57 50.1041 332.258 50.1041L332.024 49.6672V47.3821C332.068 47.0685 332.224 46.9117 332.492 46.9117ZM334.063 46.9117H334.531C334.821 46.9565 334.966 47.1133 334.966 47.3821V48.2894C334.966 48.4462 334.899 48.5247 334.765 48.5247L334.966 48.9615V49.6672C334.966 49.9584 334.821 50.1041 334.531 50.1041H334.063C333.774 50.1041 333.629 49.9584 333.629 49.6672V47.3821C333.673 47.0685 333.818 46.9117 334.063 46.9117Z"
    fill="white" />
  <path
    d="M395.753 0.100813H427.786C428.098 0.145619 428.254 0.302439 428.254 0.571274V11.7615L427.786 12.4336L426.214 12.1984C413.085 12.3552 405.963 12.4336 404.848 12.4336V13.5762C404.848 13.8898 404.692 14.0466 404.38 14.0466H400.301C399.989 14.0914 399.833 14.237 399.833 14.4835V15.8612C399.877 16.1749 400.033 16.3317 400.301 16.3317H400.535C400.981 16.3317 401.204 16.2533 401.204 16.0965C402.875 16.2533 403.856 16.4773 404.146 16.7686H409.161C409.474 16.8134 409.63 16.9702 409.63 17.239V17.4743C408.248 17.6087 406.955 17.6759 405.751 17.6759H403.711V24.7664C403.756 25.08 403.901 25.2369 404.146 25.2369H427.585C427.875 25.2817 428.02 25.4273 428.02 25.6737V36.6287C428.02 36.8528 427.797 37.088 427.351 37.3344H408.493C408.27 37.3344 408.036 37.5584 407.791 38.0065V45.5339L408.025 46.6764H410.298C410.61 46.7436 410.766 46.9005 410.766 47.1469V49.9024C410.766 50.1937 410.61 50.3393 410.298 50.3393H408.025C408.025 50.4961 407.947 50.7313 407.791 51.045V56.052L408.025 57.1946H414.612C414.924 57.2394 415.08 57.3962 415.08 57.665V57.8667C415.08 58.1803 414.846 58.3371 414.378 58.3371C413.196 58.3371 411.079 58.4155 408.025 58.5724C408.025 58.7292 407.947 58.8076 407.791 58.8076L408.025 60.387V61.5295C408.025 61.8432 407.869 62 407.557 62H391.875C391.585 62 391.44 61.8432 391.44 61.5295V58.8076C391.485 58.4939 391.63 58.3371 391.875 58.3371H397.124C397.905 58.1803 398.362 58.1019 398.495 58.1019V57.4298L392.577 57.1946H391.875C391.585 57.1946 391.44 57.049 391.44 56.7577V50.5745C391.485 50.2609 391.63 50.1041 391.875 50.1041H394.149V47.1469C394.149 46.8332 393.246 46.6092 391.44 46.4748V25.4385C391.128 25.4385 390.972 25.3713 390.972 25.2369C390.816 25.2369 390.738 25.3041 390.738 25.4385L389.167 25.2369H387.562C387.272 25.2369 387.127 25.08 387.127 24.7664V18.1463C387.171 17.8327 387.316 17.6759 387.562 17.6759C390.326 17.5415 392.142 17.4743 393.012 17.4743C393.012 17.1606 392.789 17.0038 392.343 17.0038C390.181 17.0038 387.985 16.7798 385.756 16.3317H383.482V14.4835C383.527 14.1922 383.683 14.0466 383.95 14.0466H385.288C385.444 14.0466 385.522 14.1138 385.522 14.2482C385.789 14.1362 386.703 13.9906 388.264 13.8114V0.7729L388.498 0.336043C391.752 0.179223 394.171 0.100813 395.753 0.100813ZM388.264 46.9117L388.498 47.3821V49.6672C388.498 49.9584 388.342 50.1041 388.03 50.1041L387.796 49.6672V47.3821C387.84 47.0685 387.996 46.9117 388.264 46.9117ZM389.835 46.9117H390.303C390.593 46.9565 390.738 47.1133 390.738 47.3821V48.2894C390.738 48.4462 390.671 48.5247 390.537 48.5247L390.738 48.9615V49.6672C390.738 49.9584 390.593 50.1041 390.303 50.1041H389.835C389.545 50.1041 389.401 49.9584 389.401 49.6672V47.3821C389.445 47.0685 389.59 46.9117 389.835 46.9117Z"
    fill="white" />
  <path
    d="M460.119 0.100813C465.312 0.100813 469.704 1.20976 473.293 3.42764C473.025 3.56206 472.735 3.62927 472.423 3.62927V4.06612C472.958 4.06612 474.998 5.46631 478.542 8.26667C479.411 8.26667 480.292 8.5579 481.184 9.14038H483.624L484.694 9.37561V9.61084C484.694 9.90208 484.549 10.0477 484.26 10.0477H483.156C483.023 10.0477 482.956 9.96929 482.956 9.81247C482.71 9.96929 482.343 10.0477 481.852 10.0477V10.2493C485.174 13.9682 487.659 18.9752 489.309 25.2705L488.673 25.7073H483.39V25.9425C485.553 25.9425 486.801 26.0098 487.135 26.1442C487.38 26.0098 487.748 25.9425 488.239 25.9425H488.673C489.253 25.9425 489.543 27.3427 489.543 30.1431C489.587 30.4343 489.732 30.5799 489.977 30.5799H492.184C492.318 30.5799 492.385 30.6472 492.385 30.7816L492.853 30.5799H493.053C493.945 30.6696 494.391 30.8824 494.391 31.2184C494.391 36.1247 492.998 41.0645 490.211 46.0379L489.777 46.2396H485.597L484.694 46.9117H482.521C482.231 46.9565 482.086 47.1021 482.086 47.3485C483.691 47.3485 484.494 47.4269 484.494 47.5837C481.083 53.2293 475.811 57.4186 468.678 60.1518C465.201 61.0479 462.047 61.4959 459.216 61.4959H456.808C455.092 61.4959 453.922 61.3391 453.298 61.0255C453.008 61.1823 452.785 61.2607 452.629 61.2607C446.187 60.163 441.138 58.0235 437.482 54.8423C434.651 52.4452 432.378 50.0257 430.661 47.5837C430.416 47.4269 430.126 47.3485 429.792 47.3485H427.819V46.9117H429.992C429.992 46.4636 430.148 46.2396 430.46 46.2396H433.303L434.406 46.0379C432.132 41.6918 430.884 37.7153 430.661 34.1084V33.4363L430.895 32.9995C431.029 32.9995 431.096 33.0779 431.096 33.2347C433.303 33.0779 434.919 32.9995 435.944 32.9995H439.221V32.7642C439.221 32.473 439.076 32.3274 438.786 32.3274H430.895C430.717 32.3274 430.349 31.8121 429.792 30.7816H426.047C425.757 30.7816 425.612 30.636 425.612 30.3447C425.612 30.0535 426.203 29.8294 427.384 29.6726V28.7989C427.228 28.7989 427.005 28.7317 426.716 28.5973C426.426 28.7317 426.203 28.7989 426.047 28.7989C425.913 28.5077 425.846 28.2836 425.846 28.1268C426.27 23.019 428.165 17.8775 431.53 12.7024C432.823 10.9326 434.005 10.0477 435.075 10.0477C436.969 10.0477 437.917 9.82367 437.917 9.37561C437.426 9.08437 436.992 8.93875 436.613 8.93875H436.379L435.275 9.14038L435.075 8.70352L435.275 8.26667C434.696 8.26667 434.406 8.12105 434.406 7.82981C435.498 6.86649 437.549 5.46631 440.558 3.62927H442.966C446.889 1.27696 452.607 0.100813 460.119 0.100813ZM441.862 27.69V28.1268L443.2 29.0341V29.471C443.2 29.7622 443.044 29.9079 442.732 29.9079H441.662V30.5799H445.607C445.852 30.5799 446.075 31.0952 446.276 32.1257C449.419 32.2602 451.759 32.3274 453.298 32.3274H455.036V32.7642C455.036 33.0779 454.891 33.2347 454.602 33.2347C454.334 33.0779 454.122 32.9995 453.966 32.9995C453.81 32.9995 453.732 33.0779 453.732 33.2347L452.629 32.9995C452.094 32.9995 450.043 33.0779 446.477 33.2347V34.31C447.19 37.9169 449.018 41.1653 451.96 44.0553C453.587 45.1754 454.401 45.8363 454.401 46.0379L453.966 46.2396H450.89L451.091 46.6764V46.9117H449.787V47.3485H452.428C455.036 48.0878 456.786 48.4575 457.678 48.4575C458.525 48.4575 459.918 48.2334 461.857 47.7854C461.857 47.4941 461.712 47.3485 461.423 47.3485H460.319V46.9117H462.727C462.883 46.9117 463.908 46.6876 465.803 46.2396H468.01C468.344 46.2396 468.634 46.1724 468.879 46.0379C469.169 46.1724 469.392 46.2396 469.548 46.2396C472.423 45.0074 474.987 42.2855 477.238 38.0737C478.107 35.1165 478.542 33.4251 478.542 32.9995V31.2184C478.542 30.972 477.818 30.7592 476.369 30.5799L475.934 30.7816H474.396C473.794 30.7816 473.493 29.3142 473.493 26.3794L472.423 26.1442H464.933V25.7073C467.14 25.5729 468.756 25.5057 469.782 25.5057H473.058V25.2705C471.676 21.35 469.481 18.3368 466.472 16.2309C463.15 14.1698 460.442 13.1393 458.346 13.1393C452.216 13.1393 447.234 16.2981 443.4 22.6157C442.375 25.2145 441.862 26.9059 441.862 27.69ZM426.716 32.3274H429.123C429.413 32.3722 429.558 32.5178 429.558 32.7642L429.123 32.9995H426.716V32.3274ZM480.749 33.2347L480.548 33.6715V33.8732H480.749C480.749 33.5819 480.894 33.4363 481.184 33.4363V33.2347H480.749ZM453.732 36.5279H453.966C454.256 36.5727 454.401 36.7183 454.401 36.9648V37.6369C454.401 37.9281 454.256 38.0737 453.966 38.0737H453.732C453.442 38.0737 453.298 37.9281 453.298 37.6369V36.9648C453.342 36.6735 453.487 36.5279 453.732 36.5279ZM428.02 38.9474H429.357L429.558 40.0564L428.922 40.4932H428.254C427.964 40.4932 427.741 40.0564 427.585 39.1827L428.02 38.9474Z"
    fill="white" />
  <path
    d="M496.063 0C496.353 0 496.497 0.0784101 496.497 0.23523C498.771 0.0784101 500.443 0 501.513 0H517.362C523.113 0 526.969 0.526468 528.931 1.5794C530.29 1.98266 531.126 2.44192 531.438 2.95718C531.282 3.22602 531.204 3.52846 531.204 3.8645C533.567 5.00705 535.607 7.51617 537.323 11.3919C538.393 14.6179 538.928 17.0486 538.928 18.684C538.928 19.2441 538.705 21.0699 538.26 24.1615C539.151 24.1615 539.597 24.3183 539.597 24.632C537.881 29.359 535.161 32.8538 531.438 35.1165L528.028 36.4607V36.6959C528.385 37.032 529.221 38.2529 530.536 40.3588C530.045 40.65 529.666 40.7957 529.399 40.7957L529.633 41.2661V41.5014C526.891 41.6358 525.074 41.703 524.183 41.703V41.9382C524.227 42.2519 524.383 42.4087 524.651 42.4087H530.302L532.341 44.8954C533.835 44.8954 534.816 45.6571 535.284 47.1805V47.4157C534.526 47.4157 534.147 47.5725 534.147 47.8862C538.85 54.6743 541.202 58.1691 541.202 58.3707C540.6 58.4827 540.299 58.6284 540.299 58.8076C541.347 60.3982 541.871 61.3167 541.871 61.5631L541.436 61.7648H530.068C528.797 61.7648 526.757 61.6976 523.949 61.5631C522.745 59.8381 522.143 58.9196 522.143 58.8076C522.388 58.6508 522.767 58.5724 523.28 58.5724V58.3707C518.889 51.6723 516.693 48.0206 516.693 47.4157H517.596V46.9453C517.128 45.4443 516.225 44.6938 514.887 44.6938C513.706 43.1704 512.792 42.4087 512.146 42.4087H508.066V43.5512C508.066 43.6856 508 43.7528 507.866 43.7528L508.066 44.2233V54.7079H510.574C510.886 54.7527 511.042 54.9095 511.042 55.1783C511.042 55.4696 510.886 55.6152 510.574 55.6152H508.066C508.066 56.3769 508 56.7577 507.866 56.7577L508.066 57.2282V59.9501C508.066 60.2862 508 60.5886 507.866 60.8575C508 61.1487 508.066 61.3839 508.066 61.5631L507.632 61.7648H498.336C496.821 61.7648 494.547 61.6976 491.515 61.5631V56.0856C491.56 55.772 491.716 55.6152 491.984 55.6152H494.458V54.9431H491.984C491.671 54.9431 491.515 54.7863 491.515 54.4726V42.6439L490.379 42.4087H485.865C485.553 42.4087 485.397 42.2519 485.397 41.9382L485.865 41.703C489.632 41.6358 491.515 41.4902 491.515 41.2661C491.515 40.7957 491.671 40.5604 491.984 40.5604C492.273 40.7173 492.496 40.7957 492.652 40.7957L492.886 40.3588V24.8336C492.931 24.5424 493.076 24.3967 493.321 24.3967H494.458L494.692 23.019C494.402 22.8621 494.179 22.7837 494.023 22.7837C492.686 22.9406 491.928 23.019 491.749 23.019C491.749 21.8092 491.148 21.2043 489.944 21.2043V20.0618L491.515 19.1545V3.8645L492.886 2.95718V0.672087C492.931 0.380849 493.076 0.23523 493.321 0.23523H494.926C495.439 0.23523 495.818 0.15682 496.063 0ZM508.066 12.0976C508.066 12.232 508 12.2992 507.866 12.2992C508 13.8226 508.066 14.9651 508.066 15.7268V17.1046C508.066 17.2614 508 17.3398 507.866 17.3398L508.066 17.7767V18.0119C508.066 19.3785 507.465 20.0618 506.261 20.0618V21.4396C507.465 21.5292 508.066 21.7532 508.066 22.1117H507.866C508 22.4029 508.066 22.6269 508.066 22.7837H513.517V23.2542H511.477L510.574 24.3967H509.437V26.6818H516.459C519.513 26.6818 521.564 25.9201 522.611 24.3967C524.105 24.3967 524.852 23.8591 524.852 22.7837H522.812L522.377 22.5821C522.667 21.5292 522.812 20.6107 522.812 19.8266V18.0119C522.812 16.4213 521.452 14.6739 518.733 12.7696C518.398 12.456 516.894 12.232 514.219 12.0976L513.751 12.2992L513.283 12.0976C513.149 12.0976 513.082 12.1648 513.082 12.2992C512.547 12.1648 512.235 12.0976 512.146 12.0976C510.83 12.232 510.084 12.2992 509.905 12.2992C509.058 12.1648 508.445 12.0976 508.066 12.0976ZM495.16 23.019V23.2542H495.595V23.019H495.16ZM496.297 23.019V23.2542H496.731V23.019H496.297ZM539.162 22.7837H539.831V23.2542H539.162V22.7837ZM540.734 22.7837H541.436V23.2542H540.734V22.7837ZM541.871 22.7837H543.91V23.2542H541.871V22.7837ZM508.769 40.7957L508.3 40.5604C508.3 40.8741 508.156 41.0309 507.866 41.0309C508 41.3221 508.066 41.5462 508.066 41.703C509.582 41.5686 510.719 41.5014 511.477 41.5014H511.711L512.146 41.703L513.082 40.1236C512.48 38.757 512.101 38.0737 511.945 38.0737H509.905C509.593 38.0737 509.359 38.981 509.203 40.7957H508.769ZM501.948 41.703V41.9382C501.992 42.2519 502.148 42.4087 502.416 42.4087H506.495C506.785 42.4087 506.93 42.2519 506.93 41.9382V41.703H501.948ZM520.104 58.8076H520.538C520.538 59.054 520.694 59.3565 521.006 59.7149V60.1854C520.806 60.163 520.505 59.7821 520.104 59.0428V58.8076ZM521.675 61.0927H521.909V61.5631H521.675V61.0927Z"
    fill="white" />
  <path
    d="M547.588 0.0672087H585.204C585.539 0.0672087 585.84 0.145619 586.107 0.302439C586.375 0.145619 586.675 0.0672087 587.01 0.0672087C587.322 0.448058 587.478 0.750497 587.478 0.974526L587.244 1.44499C587.4 2.22909 587.701 2.83397 588.147 3.25962V11.8623L587.913 12.2992L586.776 12.0976H582.061L580.69 12.2992C580.445 12.1648 580.077 12.0976 579.587 12.0976L578.015 12.2992C577.748 12.1648 577.447 12.0976 577.113 12.0976L576.645 12.2992C576.488 12.2992 576.41 12.232 576.41 12.0976L575.307 12.2992H573.033V20.2298C573.033 20.5435 572.432 20.7787 571.228 20.9355C571.228 21.518 571.083 21.8092 570.793 21.8092H568.754C568.464 21.8764 568.319 22.0332 568.319 22.2797C568.363 22.5709 568.508 22.7165 568.754 22.7165H571.027L571.462 22.9518L571.228 24.0943V26.1442L572.599 27.0515C572.599 27.3427 571.696 27.5668 569.89 27.7236V41.0645C569.89 41.4902 569.132 41.7926 567.617 41.9718V42.207H571.027C571.919 42.6103 572.365 42.9127 572.365 43.1144V61.0255C572.365 61.3167 572.22 61.4623 571.93 61.4623H562.902C561.386 61.4623 559.135 61.3839 556.148 61.2271C555.992 58.4491 555.914 56.4105 555.914 55.1111V42.8791C554.554 42.5879 553.874 42.2855 553.874 41.9718L553.44 42.207H551.4V41.9718C551.445 41.6806 551.601 41.535 551.868 41.535L552.972 41.7702C553.261 41.6134 553.495 41.535 553.674 41.535V27.9252C553.718 27.634 553.863 27.4883 554.108 27.4883H556.148V26.581C555.39 26.581 555.011 26.4354 555.011 26.1442V23.187C555.011 22.8734 554.855 22.7165 554.543 22.7165H552.537C552.225 22.7165 552.069 22.5709 552.069 22.2797C552.113 21.966 552.269 21.8092 552.537 21.8092H554.543L555.446 20.7003H556.583L556.817 18.6504C556.817 18.3592 556.739 18.2135 556.583 18.2135L556.817 17.071V13.4417C556.817 12.7921 556.516 12.344 555.914 12.0976C555.758 12.0976 555.68 12.1648 555.68 12.2992L554.543 12.0976H541.503C541.191 12.0976 541.035 11.9407 541.035 11.6271V3.02439C540.433 3.02439 540.132 2.87877 540.132 2.58753V2.3523C540.132 2.01626 540.21 1.71382 540.366 1.44499C540.21 1.17615 540.132 0.873713 540.132 0.537669C540.288 0.537669 540.366 0.459259 540.366 0.302439C543.598 0.145619 546.006 0.0672087 547.588 0.0672087ZM549.594 21.8092H550.063C550.352 21.8764 550.497 22.0332 550.497 22.2797C550.497 22.5709 550.352 22.7165 550.063 22.7165H549.594C549.305 22.7165 549.16 22.5709 549.16 22.2797C549.204 21.966 549.349 21.8092 549.594 21.8092ZM555.914 39.7203V40.1572H556.148V39.7203H555.914Z"
    fill="white" />
  <path
    d="M585.672 0.100813H601.02C601.332 0.145619 601.488 0.291238 601.488 0.537669V16.6678H605.701C606.013 16.7126 606.169 16.8582 606.169 17.1046V17.3398C604.163 17.4967 602.669 17.5751 601.688 17.5751H601.488V19.1209L600.351 20.0282V21.3724C600.864 21.3724 601.387 21.742 601.922 22.4813H604.597C604.887 22.5261 605.032 22.6829 605.032 22.9518V34.5789C605.032 34.8701 604.887 35.0157 604.597 35.0157C604.441 35.0157 604.363 34.9485 604.363 34.8141C604.118 34.9485 603.828 35.0157 603.494 35.0157V35.4862C603.494 35.8222 603.561 36.1135 603.695 36.3599C603.695 37.7041 603.026 38.3762 601.688 38.3762V38.6114L603.26 38.813L604.163 38.6114C604.742 38.6114 605.188 39.7315 605.5 41.9718C605.946 42.3079 606.169 42.8231 606.169 43.5176L605.266 43.9881C604.464 43.8313 603.795 43.7528 603.26 43.7528H603.026C603.026 45.209 604.731 46.8556 608.142 48.6927C608.989 49.1407 610.627 49.432 613.057 49.5664C616.222 48.6479 618.752 46.8556 620.647 44.1897C620.691 43.8985 620.836 43.7528 621.082 43.7528H622.854C624.102 43.7528 624.916 43.0023 625.295 41.5014L625.529 40.3924V36.5951C625.529 35.5422 625.673 34.7245 625.963 34.142C625.673 34.142 625.529 33.9852 625.529 33.6715V24.2623L625.763 23.1534C625.116 22.7053 624.069 22.4813 622.62 22.4813C622.62 22.6381 622.553 22.7165 622.419 22.7165C622.419 21.91 621.895 21.462 620.847 21.3724V20.0282L622.185 19.1209C622.185 17.9335 622.33 17.3398 622.62 17.3398H626.632V16.903C624.626 16.7462 623.143 16.6678 622.185 16.6678V0.537669C622.23 0.246432 622.374 0.100813 622.62 0.100813H637.766C638.078 0.145619 638.234 0.291238 638.234 0.537669V16.2309C638.279 16.5221 638.424 16.6678 638.669 16.6678H642.447C642.759 16.7126 642.916 16.8582 642.916 17.1046C642.158 17.4182 640.82 17.5751 638.903 17.5751H638.435C638.435 18.9192 638 19.5913 637.131 19.5913V21.3724C637.867 21.3724 638.234 21.518 638.234 21.8092L638 22.2797L639.104 22.4813H641.344L642.013 22.9518L641.779 24.0607V40.6276C641.779 40.9637 641.857 41.2549 642.013 41.5014C641.857 43.0023 641.634 43.7528 641.344 43.7528H638.669C638.179 43.7528 637.666 45.097 637.131 47.7854C636.106 50.6305 633.576 53.6885 629.541 56.9593C629.831 57.0042 629.976 57.1498 629.976 57.3962V57.6314C625.094 60.163 620.569 61.4287 616.4 61.4287C615.776 61.4287 615.186 61.5071 614.628 61.664C608.431 61.664 602.859 60.5438 597.91 58.3035C596.55 57.4074 595.213 56.8809 593.898 56.7241C589.885 53.9462 587.21 50.4401 585.873 46.206L585.438 43.9881L585.873 43.7528H588.347C588.548 43.7528 588.771 43.5288 589.016 43.0808L588.782 39.9556C588.938 39.6643 589.016 39.4403 589.016 39.2835L588.347 38.813H585.672C585.36 38.813 585.204 38.6674 585.204 38.3762L585.672 38.1745H587.21V35.4862L588.782 34.5789C588.782 33.6827 588.86 33.2347 589.016 33.2347L588.782 31.6553V27.6228C588.782 27.0851 588.86 26.413 589.016 25.6065C588.86 25.4273 588.782 24.912 588.782 24.0607V23.5902C588.782 23.4558 588.86 23.3886 589.016 23.3886C589.016 22.9854 588.57 22.6829 587.679 22.4813C587.389 22.6381 587.166 22.7165 587.01 22.7165V22.4813L586.542 22.7165H585.672C585.271 21.9772 584.97 21.6076 584.77 21.6076H584.335V20.9355L584.101 19.793C584.992 19.793 585.438 18.9752 585.438 17.3398H589.885V16.903C587.679 16.7462 586.196 16.6678 585.438 16.6678L585.204 16.2309V0.537669C585.249 0.246432 585.405 0.100813 585.672 0.100813ZM627.969 31.8905C627.969 32.1818 627.825 32.3274 627.535 32.3274V32.5626H627.969L628.203 32.1257V31.8905H627.969Z"
    fill="white" />
  <path
    d="M647.262 0.100813C648.711 0.100813 652.021 0.179223 657.193 0.336043C662.476 8.10985 665.418 12.12 666.02 12.3664C666.6 12.3664 667.424 12.8929 668.494 13.9458H675.75C676.04 13.9906 676.185 14.1474 676.185 14.4163C676.185 14.7075 676.04 14.8531 675.75 14.8531H675.048C674.714 14.8531 674.413 14.7859 674.145 14.6515C673.9 14.7859 673.599 14.8531 673.242 14.8531C672.908 14.8531 672.607 14.7859 672.34 14.6515L671.002 14.8531H669.631L669.197 14.6515L668.962 15.0883C670.746 17.4855 675.115 23.7695 682.07 33.9404L680.933 34.4108C683.006 37.5472 684.366 39.3619 685.012 39.8547L685.246 38.7122V37.5696C685.246 36.6735 684.789 35.6206 683.875 34.4108C684.633 34.254 685.012 34.0972 685.012 33.9404C684.254 32.7754 683.875 32.0249 683.875 31.6889C684.165 31.5321 684.388 31.4537 684.544 31.4537C684.098 30.8936 683.875 30.3671 683.875 29.8743V17.8103C683.117 17.8103 682.738 17.7431 682.738 17.6087L682.304 17.8103C681.992 17.8103 681.836 17.6647 681.836 17.3734V17.1382C681.88 16.8246 682.036 16.6678 682.304 16.6678H683.875V12.6016C682.961 12.6016 682.504 12.4448 682.504 12.1312V0.7729L682.738 0.336043C685.748 0.179223 688.01 0.100813 689.526 0.100813H697.651C697.807 0.100813 697.885 0.179223 697.885 0.336043L698.353 0.100813C698.643 0.145619 698.788 0.302439 698.788 0.571274V12.3664C699.769 12.3664 700.304 12.5904 700.393 13.0385V16.2309C700.393 16.4549 700.159 16.679 699.691 16.903H698.353V17.6087H699.691C699.913 17.6087 700.148 17.8327 700.393 18.2808V33.7388L698.788 34.6461V43.484C698.788 43.6856 698.342 43.9881 697.45 44.3913L697.651 46.0043V51.4482C698.409 51.4482 698.788 51.5939 698.788 51.8851V60.2862L699.022 61.4287L698.554 61.664H688.389C686.896 61.664 684.633 61.5855 681.601 61.4287C677.455 54.9991 675.048 51.6723 674.379 51.4482C673.688 51.4482 672.941 50.6081 672.139 48.9279C669.865 45.9931 668.728 44.3353 668.728 43.9545H669.397V43.484L663.078 34.4108C663.836 34.254 664.215 34.0972 664.215 33.9404L661.038 29.4038V26.2114C661.038 25.3601 660.213 23.8479 658.564 21.6748H658.33V33.7388L656.992 34.6461V35.0829H659.467C659.756 35.1277 659.901 35.2846 659.901 35.5534V36.2255C659.901 36.4495 659.678 36.6735 659.232 36.8976H656.992L656.758 39.6195V46.4412L656.992 47.5837C656.636 47.875 656.179 48.0206 655.621 48.0206V49.3984L656.758 50.3057V58.0347L656.992 59.3789C656.836 59.6477 656.758 59.9501 656.758 60.2862L656.992 61.4287L656.524 61.664H646.594C645.301 61.664 643.261 61.5855 640.475 61.4287L640.241 60.9919V60.7566C640.241 60.5998 640.319 60.5214 640.475 60.5214L640.241 60.0846V50.3057L639.137 49.3984V48.4911L640.241 47.5837V37.368C640.241 37.144 640.475 36.9088 640.943 36.6623H642.949C643.261 36.6623 643.417 36.5167 643.417 36.2255V35.5534C643.417 35.2397 643.261 35.0829 642.949 35.0829H640.709C640.397 35.0829 640.241 34.9373 640.241 34.6461C640.285 34.3324 640.441 34.1756 640.709 34.1756H641.846V33.7388C641.846 33.2235 641.912 32.8426 642.046 32.5962L641.846 31.4537L642.046 30.5463C642.046 30.3895 641.979 30.3111 641.846 30.3111L642.046 29.1686V28.7317C642.046 28.1268 641.979 27.8244 641.846 27.8244L642.046 26.2114V25.3041C642.046 23.3326 641.979 20.7675 641.846 17.6087L642.046 17.1382L641.846 16.6678C641.979 15.458 642.202 14.8531 642.514 14.8531H644.554C645.602 14.8531 647.251 14.7859 649.502 14.6515V14.181H649.302C648.187 14.181 647.351 14.1026 646.794 13.9458C645.813 14.1026 644.833 14.181 643.852 14.181C642.358 14.181 641.611 13.6546 641.611 12.6016C640.698 12.6016 640.241 12.3776 640.241 11.9295V0.7729L640.475 0.336043C643.707 0.179223 645.969 0.100813 647.262 0.100813ZM639.137 16.6678H639.572C639.884 16.735 640.04 16.8918 640.04 17.1382C640.04 17.4743 639.661 17.6983 638.903 17.8103L638.669 17.3734V17.1382C638.714 16.8246 638.87 16.6678 639.137 16.6678ZM679.796 16.6678H680.03C680.342 16.735 680.498 16.8918 680.498 17.1382V17.3734C680.498 17.6647 680.342 17.8103 680.03 17.8103C679.807 17.8103 679.584 17.5863 679.361 17.1382C679.406 16.8246 679.551 16.6678 679.796 16.6678ZM685.447 32.5962C685.491 32.8874 685.647 33.0331 685.915 33.0331V32.5962H685.447ZM686.349 33.2683V33.7388H686.583V33.2683H686.349Z"
    fill="white" />
  <path
    d="M709.086 0H741.252C741.453 0 741.676 0.224029 741.921 0.672087V8.43469C741.921 8.63631 742.144 8.86034 742.589 9.10677H743.492C743.849 9.10677 744.161 9.02836 744.428 8.87154C745.164 9.07317 745.532 9.2972 745.532 9.54363V10.0141C745.532 10.3053 745.387 10.4509 745.097 10.4509H743.96V11.5935C743.96 11.9071 743.804 12.064 743.492 12.064H727.877C726.295 12.064 723.887 12.1424 720.655 12.2992V14.3491C720.7 14.6403 720.845 14.7859 721.09 14.7859H723.129C723.442 14.8307 723.598 14.9875 723.598 15.2564V25.0352H743.292C743.581 25.08 743.726 25.2257 743.726 25.4721V28.8997C743.726 29.191 742.902 29.415 741.252 29.5718L740.784 29.3366L739.446 29.5718C739.134 29.415 738.9 29.3366 738.744 29.3366L738.51 30.4791V34.3436L738.744 36.6287L738.076 37.0992H718.816C718.816 37.6145 718.292 37.9169 717.245 38.0065L715.874 37.7713H715.439C715.127 37.8161 714.971 37.9729 714.971 38.2417V38.4434H716.342L718.616 38.6786V46.206C718.616 47.0125 719.061 47.4605 719.953 47.5501C719.953 47.8862 720.031 48.1886 720.187 48.4575C720.031 48.7263 719.953 49.0287 719.953 49.3648V49.6H741.486C741.776 49.6 741.999 50.3617 742.155 51.8851H745.532C745.844 51.9299 746 52.0755 746 52.3219C746 52.6356 745.844 52.7924 745.532 52.7924H743.058L741.921 53.0276V61.664H704.806C704.65 61.664 704.572 61.5855 704.572 61.4287L704.104 61.664H702.767C702.544 61.664 702.31 61.4399 702.065 60.9919V60.5214C702.065 60.3646 702.143 60.2862 702.299 60.2862L702.065 59.8493V54.3718L700.928 54.1702H698.922C698.609 54.1702 698.453 54.0134 698.453 53.6997V53.2293C698.498 52.938 698.654 52.7924 698.922 52.7924C701.44 52.6356 703.402 52.5572 704.806 52.5572H705.709V52.1203L703.435 51.8851H702.533C702.221 51.8851 702.065 51.6611 702.065 51.213L702.299 50.7425C702.143 50.4737 702.065 50.1713 702.065 49.8352C702.065 49.6336 702.522 49.4096 703.435 49.1631C703.591 48.8943 703.669 48.5807 703.669 48.2222C703.669 47.5725 703.135 47.2029 702.065 47.1133V39.3507L702.299 38.9138L701.864 38.6786H698.922C698.609 38.6786 698.453 38.533 698.453 38.2417C698.498 37.9281 698.654 37.7713 698.922 37.7713H701.63C701.92 37.7713 702.065 37.6145 702.065 37.3008V29.807C702.065 29.4934 702.299 29.3366 702.767 29.3366C703.235 29.3366 704.661 29.2694 707.047 29.135V15.2564C707.047 14.7859 706.222 14.5507 704.572 14.5507H704.104V10.9214L705.709 10.0141V9.54363C705.709 9.25239 705.553 9.10677 705.241 9.10677H702.533C702.221 9.10677 702.065 8.94995 702.065 8.63631V0.672087L702.299 0.23523C705.33 0.0784101 707.593 0 709.086 0ZM700.493 27.3203H701.63C701.92 27.3651 702.065 27.5107 702.065 27.7572V28.8997C702.065 29.191 701.92 29.3366 701.63 29.3366H700.493C700.181 29.3366 700.025 29.191 700.025 28.8997V27.7572C700.092 27.4659 700.248 27.3203 700.493 27.3203ZM708.652 52.5572H710.691V52.1203H709.086C708.796 52.1651 708.652 52.3107 708.652 52.5572ZM733.094 52.7924V53.6997C733.138 54.0134 733.294 54.1702 733.562 54.1702H736.705C736.705 53.991 736.783 53.7557 736.939 53.4645C736.783 53.1733 736.705 52.9492 736.705 52.7924H733.094Z"
    fill="white" />
</svg>