<svg width="141" height="140" viewBox="0 0 141 140" fill="none" xmlns="http://www.w3.org/2000/svg">
<path d="M138.002 70.0826C138.002 107.593 107.593 138 70.084 138C32.5748 138 2.16635 107.593 2.16635 70.0826C2.16635 32.5734 32.5748 2.1664 70.084 2.1664C107.593 2.1664 138.002 32.5734 138.002 70.0826Z" fill="#0C0C0C"/>
<path d="M138.002 70.0826C138.002 107.593 107.593 138 70.084 138C32.5748 138 2.16635 107.593 2.16635 70.0826C2.16635 32.5734 32.5748 2.1664 70.084 2.1664C107.593 2.1664 138.002 32.5734 138.002 70.0826Z" stroke="white" stroke-width="4" stroke-miterlimit="10" stroke-linecap="round" stroke-linejoin="round"/>
<path d="M131.949 70.0826C131.949 104.25 104.251 131.948 70.084 131.948C35.9168 131.948 8.21866 104.25 8.21866 70.0826C8.21866 35.9154 35.9168 8.21866 70.084 8.21866C104.251 8.21866 131.949 35.9154 131.949 70.0826Z" fill="#0C0C0C"/>
<path d="M126.224 70.0826C126.224 101.087 101.089 126.222 70.0841 126.222C39.0793 126.222 13.9446 101.087 13.9446 70.0826C13.9446 39.0779 39.0793 13.9445 70.0841 13.9445C101.089 13.9445 126.224 39.0779 126.224 70.0826Z" fill="white"/>
<path d="M126.224 70.0826C126.224 101.087 101.089 126.222 70.0841 126.222C39.0793 126.222 13.9446 101.087 13.9446 70.0826C13.9446 39.0779 39.0793 13.9446 70.0841 13.9446C101.089 13.9446 126.224 39.0779 126.224 70.0826Z" stroke="white" stroke-width="4" stroke-miterlimit="10" stroke-linecap="round" stroke-linejoin="round"/>
<path d="M90.8015 64.8782C90.8947 66.0398 90.9894 67.1293 91.0756 68.1891C87.7859 67.8711 84.6192 67.5617 81.3239 67.2367C81.3097 66.9343 81.2871 66.5739 81.2588 66.1048C84.3747 65.4477 87.4976 65.0944 90.8015 64.8782Z" fill="white"/>
<path d="M89.7911 61.1716C90.0299 61.9503 90.2532 62.7006 90.4976 63.5075C87.2673 63.9116 84.1514 64.2946 80.9267 64.6987C80.8264 64.4091 80.7176 64.0925 80.5876 63.7096C83.5452 62.4844 86.5678 61.662 89.7911 61.1716Z" fill="white"/>
<path d="M77.8971 58.0402C78.6404 58.4656 79.1745 58.2649 79.7369 57.629C80.9409 56.2668 82.2254 54.9894 83.4802 53.6695C83.6964 53.4463 83.9056 53.223 84.2164 52.898C85.1463 53.8787 86.0196 54.817 87.0073 55.8627C84.4538 56.8151 82.1024 57.7887 79.881 59.2159C80.0464 59.5692 80.199 59.8942 80.3785 60.2772C82.7737 59.1085 85.1109 57.9682 87.5626 56.7783C88.2113 57.9752 88.8104 59.0647 89.4746 60.2772C88.4925 60.4354 87.6347 60.4934 86.8194 60.7166C84.7421 61.272 82.6719 61.8923 80.6173 62.5268C80.2993 62.6286 79.9899 62.9239 79.7878 63.2122C79.0374 64.3087 78.0638 64.922 76.7143 64.6479C75.2291 64.3525 74.0958 63.6022 73.7426 62.0153C73.4684 60.7746 74.1905 59.2739 75.5245 58.5673C76.166 58.2282 76.5984 57.759 76.9814 57.1684C78.345 55.0685 79.7299 52.9913 81.1726 50.7995C81.7845 51.1881 82.3836 51.5781 83.0337 51.9894C81.1938 53.9507 79.3978 55.8697 77.5805 57.817C77.7671 57.947 77.825 57.9978 77.8971 58.0402Z" fill="white"/>
<path d="M80.0534 50.2357C78.4679 52.6747 76.9093 55.0755 75.3011 57.5569C74.8673 57.5075 74.7599 57.2757 75.027 56.7854C75.7618 55.4218 76.4839 54.0525 77.1905 52.6747C77.6879 51.7152 78.157 50.7345 78.6982 49.6521C79.2098 49.8754 79.6507 50.0633 80.0534 50.2357Z" fill="white"/>
<path d="M77.6737 49.2621C76.3892 51.8155 75.1274 54.3111 73.8287 56.8716C73.6422 56.8151 73.3822 56.7274 73.0642 56.6201C73.7566 54.629 74.4349 52.6606 75.1273 50.6624C75.3591 49.9983 75.5965 49.3271 75.8268 48.6573C76.2168 48.7859 76.5772 48.9017 76.9234 49.0176C77.1834 49.1038 77.4279 49.1829 77.6737 49.2621Z" fill="white"/>
<path d="M74.0379 50.4024C73.3384 52.4076 72.646 54.3916 71.9535 56.3742C71.4703 56.3233 71.4999 56.0576 71.5649 55.8118C71.5861 55.7326 71.6144 55.6606 71.6229 55.6026C71.8094 54.564 72.0694 53.5324 72.2715 52.4938C72.5527 51.0299 72.8127 49.5659 73.108 47.9648C73.6916 48.116 74.2046 48.246 74.7387 48.3831C74.4999 49.06 74.2696 49.7312 74.0379 50.4024Z" fill="white"/>
<path d="M81.3379 68.5932C84.54 68.5791 87.6714 68.9903 90.9173 69.5089C90.6714 70.5616 90.4553 71.5211 90.2249 72.5315C87.1726 71.5791 84.2517 70.6704 81.2659 69.7392C81.2941 69.3294 81.3097 69.0185 81.3379 68.5932Z" fill="white"/>
<path d="M89.8137 73.5405C89.3149 74.9479 88.5801 76.0869 87.7068 77.2131C85.248 75.4524 82.8528 73.7355 80.4081 71.9832C80.5735 71.6229 80.7685 71.2117 81.0059 70.6917C83.9494 71.6441 86.849 72.5824 89.8137 73.5405Z" fill="white"/>
<path d="M86.9069 78.3155C86.264 79.023 85.6507 79.7015 85.0303 80.3854C83.1481 78.099 81.3167 75.8636 79.4048 73.5264C79.4698 73.4402 79.5857 73.289 79.8089 72.9936C82.1674 74.7671 84.4976 76.5122 86.9069 78.3155Z" fill="white"/>
<path d="M84.0143 81.1797C83.0972 81.6627 82.3256 82.0739 81.5612 82.4851C81.4467 82.3907 81.352 82.3483 81.3238 82.2832C80.2781 80.0828 79.2465 77.876 78.1852 75.6757C77.9408 75.1641 77.962 74.8179 78.6841 74.5579C80.408 76.7003 82.1603 78.879 84.0143 81.1797Z" fill="white"/>
<path d="M77.2272 75.6757C77.8476 78.2938 78.8706 80.6824 80.2413 83.0404C79.2027 83.445 78.2574 83.8193 77.2413 84.2233C76.7439 81.6119 76.2677 79.1379 75.7844 76.614C76.2451 76.3101 76.7001 76.0148 77.2272 75.6757Z" fill="white"/>
<path d="M74.565 77.1622C75.0765 79.6788 75.5598 82.0883 76.0727 84.6136C75.3294 84.793 74.5579 84.9808 73.6634 85.1899C73.2819 82.7016 72.913 80.3064 72.5386 77.8473C73.231 77.6089 73.8725 77.3924 74.565 77.1622Z" fill="white"/>
<path d="M71.3699 78.1145C71.6653 80.4942 71.9535 82.8964 72.2503 85.3274C70.8216 85.6662 69.3789 85.6734 67.9361 85.3274C68.2244 82.9318 68.5141 80.5593 68.8094 78.1145C69.6177 78.1145 70.4896 78.1145 71.3699 78.1145Z" fill="white"/>
<path d="M64.1066 84.6346C64.6182 82.102 65.1156 79.665 65.6144 77.1761C66.2771 77.3854 66.9201 77.5945 67.6408 77.8319C67.2734 80.2485 66.9116 82.6226 66.5301 85.1673C65.7006 84.9878 64.9064 84.8068 64.1066 84.6346Z" fill="white"/>
<path d="M64.3949 76.5998C63.9258 79.0655 63.4496 81.5683 62.9451 84.2305C61.9065 83.8193 60.9837 83.4517 59.9521 83.0476C61.272 80.6961 62.3544 78.3309 62.9309 75.6827C63.4425 76.0007 63.8678 76.2677 64.3949 76.5998Z" fill="white"/>
<path d="M61.6182 74.5579C61.9785 74.8038 62.3318 74.955 62.0873 75.4594C60.9766 77.7755 59.8801 80.1044 58.7326 82.5276C57.9031 82.0955 57.1245 81.6913 56.23 81.2222C57.9682 78.8707 59.678 76.6351 61.6182 74.5579Z" fill="white"/>
<path d="M60.3634 72.9936C60.5937 73.2819 60.7096 73.4331 60.7887 73.5263C58.9135 75.8057 57.0807 78.0427 55.1632 80.3715C54.5569 79.723 53.9295 79.0446 53.2654 78.3309C55.6606 76.5278 57.9752 74.7882 60.3634 72.9936Z" fill="white"/>
<path d="M59.7783 71.9832C57.3549 73.7213 54.961 75.4383 52.58 77.148C51.8084 76.5122 50.8207 74.8829 50.4095 73.5263C53.3516 72.5739 56.23 71.6441 59.165 70.6987C59.3968 71.182 59.5918 71.5861 59.7783 71.9832Z" fill="white"/>
<path d="M58.9277 69.7322C55.9842 70.6493 53.0633 71.5649 49.9616 72.5315C49.7242 71.5141 49.5079 70.5546 49.2691 69.5301C52.4938 68.9535 55.6168 68.6285 58.8189 68.5635C58.8627 68.9903 58.8909 69.3209 58.9277 69.7322Z" fill="white"/>
<path d="M58.8768 66.0836C58.8768 66.4227 58.8839 66.6743 58.8768 66.9343C58.8697 67.0713 58.8273 67.2013 58.8189 67.2437C55.5885 67.5617 52.4218 67.8641 49.118 68.1891C49.1971 67.1575 49.2847 66.061 49.378 64.8853C52.6592 65.0803 55.7821 65.4632 58.8768 66.0836Z" fill="white"/>
<path d="M59.5918 63.7025C59.4688 64.0713 59.36 64.3879 59.2597 64.6987C56.1141 64.3087 52.9983 63.9258 49.7679 63.523C49.8032 62.7289 50.1282 61.9856 50.4306 61.1716C53.6327 61.6761 56.6342 62.4844 59.5918 63.7025Z" fill="white"/>
<path d="M61.0699 60.954C60.7025 61.5899 60.3987 62.1014 60.0525 62.6935C57.0878 61.5094 54.0737 60.6304 50.6766 60.3337C51.3619 59.0788 51.9597 57.9907 52.6309 56.7571C55.4868 58.1773 58.2494 59.555 61.0699 60.954Z" fill="white"/>
<path d="M62.2385 59.4618C62.0803 59.6639 61.9276 59.8589 61.734 60.1104C59.1085 58.3582 56.353 56.9592 53.1495 55.8909C54.1598 54.8169 55.0402 53.8857 55.9418 52.9192C58.0911 55.1476 60.1387 57.2828 62.2385 59.4618Z" fill="white"/>
<path d="M59.0209 50.791C60.6304 53.2654 62.2173 55.7044 63.8396 58.1914C63.6234 58.3582 63.4283 58.5023 63.2913 58.6111C61.2508 56.3968 59.2456 54.2319 57.1683 51.9823C57.7872 51.5852 58.3864 51.1952 59.0209 50.791Z" fill="white"/>
<path d="M61.5673 49.8174C62.7642 52.1405 63.9483 54.4637 65.1523 56.7783C65.3614 57.1895 65.4053 57.4778 64.8852 57.564C63.2983 55.1264 61.734 52.703 60.1316 50.2357C60.5216 50.0704 60.9611 49.8754 61.3652 49.703C61.474 49.7609 61.5461 49.775 61.5673 49.8174Z" fill="white"/>
<path d="M67.1137 56.5974C66.8255 56.7062 66.5739 56.8066 66.3634 56.8942C65.0803 54.3478 63.8113 51.8523 62.5127 49.2691C63.0822 49.0826 63.6955 48.8805 64.3511 48.6573C65.2753 51.3181 66.1839 53.9295 67.1137 56.5974Z" fill="white"/>
<path d="M68.6003 56.1877C68.6144 56.2442 68.4632 56.3318 68.2753 56.5042C67.3087 53.7275 66.386 51.0878 65.4406 48.3902C65.9677 48.2531 66.4863 48.1161 67.0643 47.9649C67.5899 50.7557 68.1029 53.4745 68.6003 56.1877Z" fill="white"/>
<path d="M72.0482 47.8998C71.5579 50.5395 71.0817 53.0633 70.6054 55.6309C70.5687 55.8188 70.5334 55.9997 70.4966 56.1877C70.238 56.1877 69.9639 56.1877 69.6813 56.1877C69.6671 56.1227 69.6601 56.0577 69.6459 55.9927C69.1485 53.2951 68.6426 50.6328 68.1311 47.8998C69.4509 47.8998 70.7199 47.8998 72.0482 47.8998Z" fill="white"/>
<path d="M96.369 85.5576C89.5395 89.2288 82.2974 91.689 74.6582 93.0155C73.3313 93.2462 72.0186 93.5714 70.6917 93.8242C70.4754 93.8666 70.2451 93.8958 70.0204 93.8958C69.8989 93.8958 69.783 93.8888 69.6672 93.8666C67.2663 93.4058 64.864 92.9509 62.4759 92.4237C54.889 90.7435 47.6822 88.0531 41.0548 83.9705C37.498 81.7785 34.0289 79.4558 30.5088 77.2048C29.2752 76.4189 28.0416 75.6106 26.7443 74.9253C25.7707 74.4067 24.6953 74.0605 23.5988 73.6055C24.4071 71.3558 25.7848 69.3506 27.2926 67.4175C30.0114 63.9258 33.0835 60.7675 36.5682 58.0402C40.5206 54.9469 44.7981 52.3059 49.5658 50.6695C53.2795 49.385 57.1457 48.5767 61.084 48.2022C61.7044 48.1372 62.3247 48.0793 62.9733 48.1231C62.7076 48.2305 62.4406 48.3322 62.1806 48.4396C61.8626 48.5626 61.5461 48.6855 61.2281 48.8155C53.6186 51.8946 49.2338 57.629 47.7331 65.5706C46.9615 69.6601 47.9422 73.5193 50.2145 77.011C50.8631 78.0201 51.6643 78.9441 52.4358 79.8737C53.8419 81.5683 55.5885 82.802 57.6516 83.5958C60.1542 84.5485 62.62 85.6083 65.2823 86.0632C69.783 86.8265 74.2258 86.6174 78.5612 85.0812C80.1622 84.5115 81.742 83.8917 83.3148 83.2425C84.7717 82.6436 86.0124 81.714 87.1005 80.5802C89.661 77.9196 91.6168 74.9338 92.3445 71.2329C93.1811 66.9992 92.3162 63.0539 90.4114 59.288C87.7717 54.0736 83.7105 50.4377 78.1641 48.4905C77.8476 48.3831 77.5296 48.2531 77.2272 48.0722C79.7793 48.2531 82.3044 48.5131 84.7929 49.1335C86.1565 49.4712 87.5626 49.6591 88.8895 50.0986C90.6926 50.6977 92.4816 51.3619 94.1773 52.1985C96.2108 53.2003 98.2089 54.3181 100.114 55.5517C105.833 59.2526 110.565 63.9978 114.452 69.581C115.333 70.8428 115.981 72.2644 116.797 73.7143C113.795 74.2484 111.567 75.9795 109.252 77.5012C105.01 80.2782 100.841 83.1481 96.369 85.5576ZM80.6596 89.5534C88.3412 87.9228 95.0718 84.3675 101.152 79.4839C101.376 79.3046 101.585 79.1092 101.801 78.9215C101.585 78.8636 101.462 78.9071 101.339 78.9723C98.2597 80.5802 95.1933 82.2323 92.0845 83.8049C86.4448 86.6537 80.6088 88.9401 74.2979 90.0369C74.5932 90.0723 74.8899 90.1158 75.1853 90.1302C77.0463 90.2533 78.8565 89.9365 80.6596 89.5534ZM88.3412 85.0602C91.0614 83.784 93.4693 82.0159 95.8136 80.169C96.7731 79.4045 97.6465 78.5329 98.5621 77.7033C98.5989 77.674 98.6342 77.6452 98.671 77.6089C98.613 77.6226 98.5551 77.6381 98.5042 77.6524C98.3742 77.7033 98.2371 77.7457 98.1156 77.8108C94.2635 79.9531 90.6644 82.4851 87.044 84.9807C86.7049 85.2114 86.4307 85.5067 86.1269 85.7806C86.1128 85.7893 86.0986 85.7893 86.0845 85.796C86.0774 85.8104 86.0619 85.8313 86.0548 85.8457C86.069 85.8313 86.0845 85.8246 86.0986 85.8104C86.1057 85.8032 86.1198 85.796 86.1269 85.7806C86.8702 85.5504 87.6488 85.392 88.3412 85.0602ZM109.006 66.2701C106.994 62.5565 103.727 60.4707 99.824 59.2159C102.868 61.5899 106.265 63.5075 109.006 66.2701ZM37.6633 79.0727H37.6718C37.686 79.0811 37.7001 79.0881 37.7142 79.0881C38.5663 79.867 39.3958 80.6735 40.2747 81.4171C43.8598 84.4043 47.6892 86.9563 52.2917 88.1177C53.2724 88.371 54.2686 88.5659 55.2564 88.7823C55.2776 88.7171 55.2917 88.6448 55.3143 88.5802C54.3181 88.169 53.3233 87.7506 52.32 87.3466C49.8683 86.3656 47.4519 85.2976 45.2234 83.8563C42.8579 82.3257 40.498 80.7894 38.1325 79.2676C38.011 79.1815 37.8583 79.1451 37.7142 79.0881C37.7001 79.0811 37.693 79.0727 37.6789 79.0583C37.6563 79.0513 37.6421 79.0446 37.6209 79.0374C37.563 78.9867 37.5051 78.9286 37.4401 78.879C37.4259 78.9005 37.4118 78.9286 37.3977 78.9513C37.4697 78.9795 37.5489 79.0093 37.6209 79.0374C37.6351 79.0512 37.6492 79.0583 37.6633 79.0727ZM44.6031 55.0911C40.2323 55.2776 29.4052 64.5108 28.799 68.6723C33.6897 63.5725 38.4504 58.5744 44.6031 55.0911ZM47.8843 83.4224C51.5555 86.3872 55.6379 88.1618 60.4707 87.7716C56.0491 86.9652 51.8876 85.4273 47.8843 83.4224Z" fill="white"/>
<path d="M99.8241 59.2159C103.727 60.4707 106.994 62.5565 109.006 66.2701C106.265 63.5075 102.868 61.5899 99.8241 59.2159Z" fill="#0C0C0C"/>
<path d="M98.5042 77.6524C98.5551 77.6382 98.613 77.6226 98.671 77.6089C98.6342 77.6452 98.5989 77.674 98.5622 77.7033L98.5042 77.6524Z" fill="#0C0C0C"/>
<path d="M98.1156 77.8108C98.2371 77.7457 98.3742 77.7033 98.5042 77.6524L98.5622 77.7033C97.6465 78.5329 96.7732 79.4045 95.8137 80.169C93.4693 82.0159 91.0614 83.784 88.3412 85.0602C87.6488 85.392 86.8702 85.5504 86.1269 85.7806C86.4307 85.5067 86.7049 85.2114 87.044 84.9808C90.6644 82.4851 94.2635 79.9531 98.1156 77.8108Z" fill="#0C0C0C"/>
<path d="M86.127 85.7806C86.1199 85.796 86.1057 85.8032 86.0987 85.8104L86.0846 85.796C86.0987 85.7893 86.1128 85.7893 86.127 85.7806Z" fill="#0C0C0C"/>
<path d="M86.0987 85.8104C86.0845 85.8246 86.069 85.8313 86.0549 85.8457C86.0619 85.8313 86.0775 85.8104 86.0845 85.796L86.0987 85.8104Z" fill="#0C0C0C"/>
<path d="M80.6596 89.5534C78.8565 89.9365 77.0464 90.2533 75.1853 90.1302C74.89 90.1158 74.5932 90.0723 74.2979 90.037C80.6088 88.9401 86.4449 86.6537 92.0845 83.8049C95.1934 82.2323 98.2598 80.5802 101.339 78.9723C101.462 78.9071 101.585 78.8636 101.801 78.9215C101.585 79.1092 101.376 79.3046 101.152 79.484C95.0718 84.3675 88.3412 87.9228 80.6596 89.5534Z" fill="#0C0C0C"/>
<path d="M70.6917 93.8242C72.0186 93.5714 73.3313 93.2462 74.6582 93.0155C82.2974 91.689 89.5395 89.2288 96.369 85.5576C100.841 83.1481 105.01 80.2783 109.252 77.5012C111.567 75.9795 113.795 74.2484 116.797 73.7143L117.878 73.7425C117.835 73.9446 117.777 74.1396 117.705 74.3417C117.633 74.5296 117.345 74.6667 117.129 74.767C116.256 75.1924 115.289 75.4736 114.503 76.0219C110.911 78.5174 107.361 81.0864 103.806 83.6311C103.762 83.6609 103.741 83.7189 103.704 83.7757C104.852 85.8964 105.999 88.025 107.152 90.1528C107.094 90.1882 107.045 90.2163 106.994 90.2533C105.026 88.738 103.583 86.7405 102.031 84.7506C100.841 85.4345 99.6799 86.0985 98.4392 86.8051C99.694 89.2427 101.044 91.5587 101.369 94.3568C99.5287 92.3669 98.1439 90.1302 96.889 87.7434C94.963 88.652 93.0808 89.5468 91.0685 90.4989C91.9913 92.9437 92.8928 95.4322 92.9861 98.1666C91.313 96.0244 90.0652 93.722 89.2498 91.1403C87.1443 91.7889 85.118 92.4166 83.004 93.0734C83.596 96.1104 84.7067 99.0753 84.2093 102.305C82.2904 99.7022 81.8424 96.6006 80.9776 93.5714C79.2395 93.903 77.5296 94.2282 75.7689 94.5589C76.0939 96.5862 76.4048 98.5917 76.7284 100.597C77.0534 102.602 77.0902 104.6 76.6139 106.778C74.89 102.891 74.3699 98.8942 73.9813 94.7609C72.6615 94.7609 71.3488 94.7609 70.0204 94.7609V93.8958C70.2451 93.8958 70.4755 93.8666 70.6917 93.8242Z" fill="#0C0C0C"/>
<path d="M60.4707 87.7716C55.6379 88.1618 51.5555 86.3872 47.8842 83.4224C51.8875 85.4273 56.0491 86.9652 60.4707 87.7716Z" fill="#0C0C0C"/>
<path d="M70.4967 56.1877C70.5334 55.9997 70.5688 55.8188 70.6055 55.6309L71.565 55.8118C71.5 56.0577 71.4703 56.3233 71.9536 56.3742C72.646 54.3916 73.3384 52.4076 74.0379 50.4024L75.1274 50.6624C74.435 52.6606 73.7567 54.629 73.0643 56.6201C73.3822 56.7275 73.6422 56.8151 73.8288 56.8716C75.1274 54.3111 76.3893 51.8155 77.6738 49.2621C77.4279 49.1829 77.1835 49.1038 76.9234 49.0176L77.2273 48.0722C77.5297 48.2531 77.8476 48.3831 78.1641 48.4905C83.7105 50.4378 87.7718 54.0737 90.4114 59.288C92.3163 63.0539 93.1811 66.9993 92.3446 71.2329C91.6168 74.9338 89.6611 77.9197 87.1006 80.5802C86.0125 81.714 84.7718 82.6436 83.3149 83.2425C81.7421 83.8917 80.1623 84.5115 78.5612 85.0812C74.2259 86.6174 69.7831 86.8266 65.2824 86.0632C62.6201 85.6083 60.1542 84.5485 57.6516 83.5958C55.5885 82.8021 53.8419 81.5683 52.4359 79.8737C51.6643 78.9442 50.8631 78.0201 50.2145 77.011C47.9422 73.5193 46.9616 69.6601 47.7331 65.5706C49.2338 57.629 53.6186 51.8947 61.2282 48.8155C61.5461 48.6855 61.8627 48.5626 62.1806 48.4396L62.5127 49.2691C63.8113 51.8523 65.0803 54.3478 66.3634 56.8942C66.5739 56.8066 66.8255 56.7063 67.1137 56.5974C66.1839 53.9295 65.2753 51.3181 64.3511 48.6573L65.4406 48.3902C66.386 51.0878 67.3087 53.7275 68.2753 56.5042C68.4632 56.3318 68.6144 56.2442 68.6003 56.1877L69.646 55.9927C69.6601 56.0577 69.6672 56.1227 69.6813 56.1877C69.9639 56.1877 70.2381 56.1877 70.4967 56.1877ZM67.9362 85.3274C69.3789 85.6735 70.8217 85.6663 72.2503 85.3274C71.9536 82.8965 71.6653 80.4942 71.37 78.1145C70.4896 78.1145 69.6177 78.1145 68.8095 78.1145C68.5141 80.5593 68.2244 82.9318 67.9362 85.3274ZM66.5301 85.1673C66.9116 82.6226 67.2734 80.2484 67.6408 77.8319C66.9201 77.5945 66.2772 77.3854 65.6144 77.1761C65.1156 79.665 64.6182 82.102 64.1067 84.6346C64.9065 84.8068 65.7006 84.9878 66.5301 85.1673ZM65.1523 56.7783C63.9484 54.4637 62.7642 52.1405 61.5673 49.8174C61.5461 49.775 61.4741 49.7609 61.3653 49.703C60.9611 49.8754 60.5217 50.0704 60.1316 50.2357C61.7341 52.703 63.2984 55.1264 64.8853 57.564C65.4053 57.4778 65.3615 57.1895 65.1523 56.7783ZM62.9451 84.2306C63.4496 81.5683 63.9258 79.0655 64.3949 76.5998C63.8679 76.2678 63.4425 76.0007 62.931 75.6827C62.3544 78.3309 61.272 80.6961 59.9522 83.0477C60.9837 83.4517 61.9065 83.8193 62.9451 84.2306ZM76.0728 84.6136C75.5598 82.0883 75.0765 79.6788 74.565 77.1622C73.8726 77.3924 73.231 77.6089 72.5386 77.8473C72.9131 80.3064 73.2819 82.7016 73.6634 85.1899C74.5579 84.9808 75.3295 84.793 76.0728 84.6136ZM75.3012 57.5569C76.9093 55.0755 78.468 52.6747 80.0535 50.2357C79.6507 50.0633 79.2098 49.8754 78.6983 49.6521C78.1571 50.7345 77.6879 51.7152 77.1905 52.6747C76.484 54.0525 75.7619 55.4218 75.0271 56.7854C74.76 57.2757 74.8674 57.5075 75.3012 57.5569ZM77.2273 75.6757C76.7002 76.0148 76.2451 76.3101 75.7845 76.614C76.2678 79.1379 76.744 81.6119 77.2414 84.2233C78.2574 83.8193 79.2028 83.445 80.2414 83.0404C78.8707 80.6824 77.8476 78.2939 77.2273 75.6757ZM76.9814 57.1683C76.5985 57.759 76.166 58.2282 75.5245 58.5673C74.1905 59.2739 73.4684 60.7746 73.7426 62.0153C74.0958 63.6022 75.2291 64.3525 76.7143 64.6479C78.0638 64.922 79.0374 64.3087 79.7878 63.2122C79.9899 62.9239 80.2993 62.6286 80.6173 62.5268C82.6719 61.8923 84.7421 61.272 86.8194 60.7166C87.6347 60.4934 88.4925 60.4354 89.4746 60.2772C88.8104 59.0647 88.2113 57.9752 87.5626 56.7783C85.1109 57.9682 82.7737 59.1085 80.3785 60.2772C80.199 59.8942 80.0464 59.5692 79.881 59.2159C82.1024 57.7887 84.4538 56.8151 87.0073 55.8626C86.0196 54.817 85.1463 53.8787 84.2164 52.898C83.9056 53.223 83.6964 53.4462 83.4802 53.6695C82.2254 54.9893 80.9409 56.2668 79.7369 57.629C79.1745 58.2649 78.6404 58.4656 77.8971 58.0402C77.825 57.9978 77.7671 57.947 77.5806 57.817C79.3978 55.8697 81.1938 53.9507 83.0337 51.9893C82.3836 51.5781 81.7845 51.1881 81.1726 50.7995C79.7299 52.9912 78.345 55.0685 76.9814 57.1683ZM80.4082 71.9832C82.8528 73.7355 85.248 75.4524 87.7068 77.2131C88.5801 76.0869 89.3149 74.9479 89.8137 73.5405C86.849 72.5824 83.9494 71.6441 81.0059 70.6917C80.7685 71.2117 80.5735 71.6229 80.4082 71.9832ZM86.907 78.3155C84.4977 76.5122 82.1675 74.767 79.809 72.9936C79.5857 73.2889 79.4698 73.4402 79.4048 73.5264C81.3168 75.8636 83.1481 78.099 85.0304 80.3854C85.6507 79.7014 86.264 79.023 86.907 78.3155ZM78.1853 75.6757C79.2466 77.876 80.2782 80.0828 81.3238 82.2832C81.3521 82.3483 81.4468 82.3907 81.5612 82.4851C82.3257 82.0739 83.0972 81.6627 84.0143 81.1797C82.1604 78.879 80.4081 76.7003 78.6842 74.5579C77.9621 74.8179 77.9409 75.1641 78.1853 75.6757ZM81.3238 67.2367C84.6192 67.5617 87.7859 67.8711 91.0756 68.1891C90.9894 67.1293 90.8947 66.0398 90.8015 64.8782C87.4976 65.0944 84.3747 65.4477 81.2588 66.1048C81.2871 66.5739 81.3097 66.9343 81.3238 67.2367ZM80.9268 64.6987C84.1514 64.2946 87.2673 63.9116 90.4977 63.5075C90.2532 62.7006 90.0299 61.9503 89.7911 61.1716C86.5678 61.662 83.5452 62.4844 80.5876 63.7096C80.7176 64.0925 80.8264 64.4091 80.9268 64.6987ZM90.9173 69.5089C87.6715 68.9903 84.54 68.5791 81.338 68.5932C81.3097 69.0186 81.2941 69.3294 81.2659 69.7392C84.2518 70.6705 87.1726 71.5791 90.2249 72.5315C90.4553 71.5212 90.6715 70.5617 90.9173 69.5089ZM50.4095 73.5264C50.8207 74.8829 51.8085 76.5122 52.58 77.148C54.9611 75.4383 57.3549 73.7214 59.7784 71.9832C59.5918 71.5862 59.3968 71.182 59.1651 70.6987C56.2301 71.6441 53.3516 72.5739 50.4095 73.5264ZM58.8189 68.5636C55.6168 68.6286 52.4938 68.9536 49.2692 69.5301C49.508 70.5546 49.7242 71.5141 49.9616 72.5315C53.0633 71.565 55.9842 70.6493 58.9277 69.7322C58.8909 69.321 58.8627 68.9903 58.8189 68.5636ZM58.8768 66.0836C55.7821 65.4632 52.6592 65.0803 49.378 64.8853C49.2847 66.061 49.1971 67.1575 49.118 68.1891C52.4218 67.8641 55.5885 67.5617 58.8189 67.2437C58.8273 67.2013 58.8697 67.0713 58.8768 66.9343C58.8839 66.6742 58.8768 66.4227 58.8768 66.0836ZM50.4307 61.1716C50.1283 61.9856 49.8033 62.7289 49.768 63.523C52.9983 63.9258 56.1142 64.3087 59.2597 64.6987C59.3601 64.3879 59.4689 64.0713 59.5918 63.7025C56.6342 62.4844 53.6328 61.6761 50.4307 61.1716ZM62.2386 59.4618C60.1387 57.2828 58.0911 55.1476 55.9418 52.9192C55.0402 53.8857 54.1599 54.8169 53.1495 55.8909C56.353 56.9592 59.1085 58.3582 61.7341 60.1104C61.9277 59.8589 62.0803 59.6639 62.2386 59.4618ZM55.1632 80.3715C57.0807 78.0427 58.9135 75.8057 60.7887 73.5264C60.7096 73.4331 60.5937 73.2819 60.3634 72.9936C57.9752 74.7882 55.6606 76.5278 53.2654 78.3309C53.9295 79.0446 54.557 79.7231 55.1632 80.3715ZM58.7327 82.5276C59.8801 80.1045 60.9767 77.7755 62.0873 75.4595C62.3318 74.955 61.9785 74.8038 61.6182 74.5579C59.678 76.6352 57.9682 78.8707 56.2301 81.2222C57.1246 81.6914 57.9032 82.0955 58.7327 82.5276ZM61.0699 60.954C58.2494 59.5551 55.4868 58.1773 52.6309 56.7571C51.9597 57.9908 51.3619 59.0789 50.6766 60.3337C54.0737 60.6304 57.0878 61.5094 60.0525 62.6935C60.3987 62.1015 60.7025 61.5899 61.0699 60.954ZM63.8396 58.1914C62.2174 55.7044 60.6304 53.2654 59.0209 50.791C58.3865 51.1952 57.7873 51.5852 57.1683 51.9823C59.2456 54.2319 61.2508 56.3968 63.2913 58.6111C63.4284 58.5023 63.6234 58.3582 63.8396 58.1914Z" fill="#0C0C0C"/>
<path d="M70.6055 55.6309C71.0817 53.0633 71.5579 50.5395 72.0483 47.8999C70.7199 47.8999 69.451 47.8999 68.1312 47.8999C68.6427 50.6328 69.1486 53.2951 69.646 55.9927L68.6003 56.1877C68.1029 53.4745 67.5899 50.7557 67.0643 47.9649C66.4863 48.1161 65.9677 48.2531 65.4406 48.3902L64.3511 48.6573C63.6954 48.8805 63.0822 49.0826 62.5127 49.2691L62.1806 48.4396C62.4406 48.3323 62.7077 48.2305 62.9734 48.1231C62.3247 48.0793 61.7044 48.1373 61.0841 48.2023C57.1458 48.5767 53.2795 49.385 49.5659 50.6695C44.7981 52.3059 40.5207 54.947 36.5682 58.0402C33.0835 60.7675 30.0115 63.9258 27.2927 67.4175C25.7849 69.3507 24.4071 71.3558 23.5988 73.6055C24.6954 74.0605 25.7708 74.4067 26.7444 74.9253C28.0416 75.6107 29.2752 76.419 30.5089 77.2048C34.0289 79.4558 37.4981 81.7785 41.0548 83.9705C47.6822 88.0531 54.889 90.7435 62.4759 92.4237C64.8641 92.9509 67.2664 93.4058 69.6672 93.8666C69.7831 93.8888 69.899 93.8959 70.0205 93.8959V94.7609C68.7586 94.7609 67.4896 94.7609 66.2051 94.7609C65.808 98.8506 65.2965 102.869 63.5725 106.613C63.2984 105.091 63.0468 103.576 63.2842 102.04C63.6587 99.6515 64.0417 97.2719 64.4232 94.884C64.4387 94.8045 64.4232 94.7184 64.4232 94.5661C62.7077 94.2354 60.9978 93.9031 59.2159 93.5642C58.3285 96.557 57.9032 99.6956 55.9771 102.305C55.4656 99.089 56.5763 96.1458 57.1825 93.0734C55.0982 92.4237 53.0492 91.7889 50.9281 91.1403C50.1057 93.722 48.8806 96.0382 47.1919 98.1368C47.3007 95.4464 48.1811 92.9718 49.1109 90.4989C47.1495 89.5678 45.2659 88.6735 43.3045 87.7434C42.0567 90.0949 40.6648 92.3602 38.8037 94.3794C39.1429 91.6096 40.4557 89.2868 41.7388 86.8193C40.5419 86.1266 39.3874 85.4571 38.1693 84.7506C36.6177 86.698 35.1834 88.7171 33.0694 90.3549C34.0501 87.9736 35.2767 85.9037 36.5386 83.8336C36.4453 83.7331 36.3803 83.6383 36.2941 83.5732C32.9903 81.215 29.6794 78.8636 26.3826 76.4981C25.3228 75.7407 24.2771 74.9988 22.9573 74.7317C22.7552 74.695 22.5673 74.3855 22.4528 74.1608C22.0331 73.3398 22.2211 72.5103 22.6464 71.7741C23.4406 70.4105 24.2404 69.0327 25.1787 67.7708C27.458 64.7199 30.0539 61.9432 32.8885 59.3897C33.0765 59.2159 33.2644 59.0365 33.4439 58.8485C33.4806 58.8203 33.4806 58.7482 33.4665 58.7977C32.3191 57.9258 31.2084 57.0807 30.1047 56.23C30.0256 56.165 29.9818 56.0576 30.0044 55.8188C31.6125 56.3968 33.2206 56.9663 34.9446 57.5866C35.6017 57.0963 36.3732 56.5113 37.108 55.9559C35.9323 54.7873 34.7934 53.6695 33.6615 52.5518C33.711 52.5009 33.7548 52.45 33.7986 52.4006C35.6158 52.8047 37.1518 53.7783 38.6299 54.8749C40.0233 53.9875 41.3784 53.1212 42.8 52.2197C41.1269 50.5974 39.475 48.9964 37.8231 47.394C37.8584 47.3445 37.9022 47.2866 37.9375 47.2357C39.0638 47.6978 40.2027 48.1373 41.1905 48.8876C42.1146 49.58 43.0233 50.2866 43.9686 50.9507C44.1848 51.1019 44.5819 51.2107 44.7981 51.1161C46.8598 50.2286 48.8947 49.2918 51.0369 48.3252C49.3271 46.6592 47.4166 45.1584 46.1674 42.9441C46.3695 43.0091 46.5362 43.0445 46.6945 43.1095C49.0826 44.0266 51.0073 45.6135 52.833 47.3445C52.9842 47.4957 53.2866 47.6257 53.4816 47.5819C54.7152 47.3219 55.9418 47.0195 57.2616 46.7086C55.3723 44.0195 53.4236 41.401 52.3709 38.1043C53.2654 38.9479 54.1316 39.6262 54.824 40.4557C56.3233 42.2376 57.7378 44.0831 59.158 45.93C59.4039 46.255 59.5989 46.45 60.0454 46.4062C61.5023 46.255 62.9663 46.1462 64.4882 46.0247C63.5004 42.7491 62.1523 39.612 61.6253 36.222C64.1787 39.0058 65.5056 42.41 66.6234 45.995C68.8886 45.995 71.24 45.995 73.5631 45.995C74.6441 42.4538 76.0219 39.0567 78.5245 36.215C78.0638 39.605 76.6719 42.7208 75.6969 46.0162C77.2485 46.1462 78.7845 46.2988 80.3276 46.3921C80.5367 46.4062 80.8406 46.1759 80.9635 45.9738C82.7511 43.0445 85.1025 40.6069 87.5994 38.2851C87.6277 38.2555 87.6927 38.2555 87.7718 38.2413C86.7473 41.3855 84.8439 44.004 82.9107 46.7016C84.2447 47.0195 85.5137 47.3374 86.7982 47.596C86.9791 47.6328 87.2532 47.4307 87.4185 47.2724C89.3149 45.4835 91.3356 43.8895 93.8156 42.9583C93.8594 42.9441 93.9173 42.9724 93.9965 42.9879C92.777 45.1231 90.8947 46.6365 89.1057 48.3605C89.3869 48.4905 89.582 48.5852 89.777 48.6714C91.5659 49.4571 93.3691 50.2286 95.151 51.044C95.5692 51.2319 95.8717 51.2531 96.2475 50.9578C97.012 50.3516 97.7695 49.7171 98.5989 49.2056C99.7167 48.5131 100.899 47.921 102.054 47.2936C102.11 47.2569 102.205 47.2936 102.45 47.3078C100.712 48.9964 99.0667 50.5904 97.3865 52.2197C98.7713 53.1071 100.149 53.9804 101.562 54.882C103.012 53.7557 104.564 52.8471 106.474 52.3567C105.509 53.7925 104.333 54.8664 102.97 55.8697C103.799 56.5042 104.549 57.0737 105.226 57.5866C106.973 56.9663 108.581 56.3968 110.189 55.8188C110.219 55.8838 110.24 55.9418 110.268 56.0068C109.245 57.0892 108.084 57.9978 106.555 58.6464C106.829 58.9206 107.022 59.1439 107.247 59.3389C110.333 62.1297 113.147 65.1665 115.577 68.5424C116.386 69.6531 116.999 70.9008 117.684 72.0991C117.987 72.6389 118.001 73.1943 117.878 73.7426L116.797 73.7143C115.981 72.2645 115.333 70.8429 114.452 69.581C110.565 63.9978 105.833 59.2527 100.114 55.5518C98.2089 54.3181 96.2108 53.2004 94.1774 52.1985C92.4816 51.3619 90.6926 50.6978 88.8895 50.0986C87.5626 49.6591 86.1566 49.4712 84.793 49.1335C82.3045 48.5131 79.7793 48.2531 77.2273 48.0722L76.9234 49.0176C76.5772 48.9017 76.2169 48.7859 75.8269 48.6573C75.5965 49.3271 75.3591 49.9983 75.1274 50.6624L74.0379 50.4024C74.2697 49.7312 74.5 49.06 74.7388 48.3831C74.2046 48.2461 73.6917 48.1161 73.1081 47.9649C72.8127 49.5659 72.5527 51.0299 72.2715 52.4938C72.0695 53.5325 71.8094 54.564 71.6229 55.6026C71.6144 55.6606 71.5862 55.7326 71.565 55.8118L70.6055 55.6309Z" fill="#0C0C0C"/>
</svg>
