<svg width="671" height="135" viewBox="0 0 671 135" fill="none" xmlns="http://www.w3.org/2000/svg">
<path d="M75.3506 0.219989C86.6921 0.219989 96.2813 2.63987 104.118 7.47963C103.534 7.77295 102.901 7.91961 102.22 7.91961V8.87289C103.388 8.87289 107.842 11.9283 115.581 18.0391C117.48 18.0391 119.402 18.6746 121.35 19.9457H126.68L129.016 20.459V20.9723C129.016 21.6078 128.7 21.9256 128.067 21.9256H125.657C125.365 21.9256 125.219 21.7545 125.219 21.4123C124.684 21.7545 123.881 21.9256 122.81 21.9256V22.3656C130.063 30.4807 135.49 41.4068 139.092 55.1439L137.705 56.0972H126.168V56.6105C130.89 56.6105 133.616 56.7572 134.346 57.0505C134.881 56.7572 135.685 56.6105 136.755 56.6105H137.705C138.97 56.6105 139.603 59.6659 139.603 65.7767C139.7 66.4123 140.017 66.73 140.552 66.73H145.371C145.663 66.73 145.809 66.8767 145.809 67.17L146.831 66.73H147.27C149.217 66.9256 150.19 67.39 150.19 68.1233C150.19 78.8294 147.148 89.6089 141.063 100.462L140.114 100.902H130.987L129.016 102.368H124.27C123.637 102.466 123.321 102.784 123.321 103.322C126.826 103.322 128.578 103.493 128.578 103.835C121.13 116.154 109.619 125.296 94.0422 131.26C86.4488 133.216 79.5611 134.193 73.3792 134.193H68.1222C64.3741 134.193 61.8186 133.851 60.4557 133.167C59.8229 133.509 59.3362 133.68 58.9954 133.68C44.928 131.285 33.9029 126.616 25.92 119.674C19.7382 114.443 14.7732 109.163 11.0251 103.835C10.4897 103.493 9.85691 103.322 9.12677 103.322H4.81893V102.368H9.56485C9.56485 101.391 9.90559 100.902 10.5871 100.902H16.7933L19.2027 100.462C14.2378 90.9777 11.5119 82.3004 11.0251 74.4297V72.9631L11.5362 72.0098C11.8283 72.0098 11.9743 72.1809 11.9743 72.5231C16.7933 72.1809 20.3223 72.0098 22.5614 72.0098H29.7168V71.4965C29.7168 70.8609 29.4004 70.5432 28.7676 70.5432H11.5362C11.1468 70.5432 10.3437 69.4188 9.12677 67.17H0.949184C0.316395 67.17 0 66.8523 0 66.2167C0 65.5812 1.28992 65.0923 3.86975 64.7501V62.8436C3.52902 62.8436 3.04226 62.6969 2.40947 62.4036C1.77668 62.6969 1.28992 62.8436 0.949184 62.8436C0.657127 62.208 0.511099 61.7192 0.511099 61.377C1.43594 50.2309 5.57341 39.0114 12.9235 27.7186C15.7467 23.8566 18.3266 21.9256 20.663 21.9256C24.8005 21.9256 26.8692 21.4367 26.8692 20.459C25.7983 19.8235 24.8491 19.5057 24.0217 19.5057H23.5106L21.1011 19.9457L20.663 18.9924L21.1011 18.0391C19.8355 18.0391 19.2027 17.7213 19.2027 17.0858C21.5878 14.9837 26.0661 11.9283 32.6373 7.91961H37.8943C46.4613 2.78653 58.9468 0.219989 75.3506 0.219989ZM35.4849 60.4237V61.377L38.4054 63.3569V64.3102C38.4054 64.9457 38.0647 65.2634 37.3832 65.2634H35.0468V66.73H43.6625C44.1979 66.73 44.6847 67.8544 45.1227 70.1032C51.9861 70.3965 57.0971 70.5432 60.4557 70.5432H64.2524V71.4965C64.2524 72.1809 63.9361 72.5231 63.3033 72.5231C62.7192 72.1809 62.2567 72.0098 61.916 72.0098C61.5753 72.0098 61.4049 72.1809 61.4049 72.5231L58.9954 72.0098C57.8272 72.0098 53.349 72.1809 45.5608 72.5231V74.8696C47.1185 82.7404 51.1099 89.8289 57.5351 96.1352C61.0885 98.5796 62.8652 100.022 62.8652 100.462L61.916 100.902H55.1987L55.6368 101.855V102.368H52.7892V103.322H58.5573C64.2524 104.935 68.0735 105.741 70.0206 105.741C71.8703 105.741 74.9125 105.253 79.1473 104.275C79.1473 103.639 78.8309 103.322 78.1982 103.322H75.7887V102.368H81.0457C81.3864 102.368 83.6255 101.879 87.763 100.902H92.5819C93.3121 100.902 93.9449 100.755 94.4803 100.462C95.1131 100.755 95.5999 100.902 95.9406 100.902C102.22 98.2129 107.818 92.2732 112.734 83.0826C114.632 76.6295 115.581 72.9386 115.581 72.0098V68.1233C115.581 67.5855 113.999 67.1211 110.835 66.73L109.886 67.17H106.528C105.213 67.17 104.556 63.968 104.556 57.5638L102.22 57.0505H85.8646V56.0972C90.6836 55.8039 94.2126 55.6572 96.4517 55.6572H103.607V55.1439C100.589 46.5888 95.7946 40.0136 89.2233 35.4182C81.9705 30.9207 76.0564 28.6719 71.4809 28.6719C58.0949 28.6719 47.2158 35.5649 38.8435 49.3509C36.6044 55.0217 35.4849 58.7127 35.4849 60.4237ZM2.40947 70.5432H7.66649C8.29927 70.641 8.61567 70.9587 8.61567 71.4965L7.66649 72.0098H2.40947V70.5432ZM120.4 72.5231L119.962 73.4764V73.9163H120.4C120.4 73.2808 120.717 72.9631 121.35 72.9631V72.5231H120.4ZM61.4049 79.7094H61.916C62.5488 79.8072 62.8652 80.1249 62.8652 80.6627V82.1293C62.8652 82.7648 62.5488 83.0826 61.916 83.0826H61.4049C60.7721 83.0826 60.4557 82.7648 60.4557 82.1293V80.6627C60.5531 80.0272 60.8695 79.7094 61.4049 79.7094ZM5.25702 84.9891H8.17758L8.61567 87.409L7.2284 88.3623H5.76812C5.13533 88.3623 4.64857 87.409 4.30783 85.5024L5.25702 84.9891Z" fill="white"/>
<path d="M153.841 0C154.474 0 154.79 0.171103 154.79 0.513308C159.755 0.171103 163.406 0 165.742 0H200.351C212.909 0 221.33 1.14883 225.614 3.4465C228.583 4.32645 230.408 5.32863 231.09 6.45301C230.749 7.03965 230.579 7.69962 230.579 8.43292C235.738 10.9261 240.192 16.4014 243.94 24.8588C246.277 31.8984 247.445 37.2026 247.445 40.7713C247.445 41.9935 246.958 45.9777 245.985 52.7241C247.932 52.7241 248.905 53.0663 248.905 53.7507C245.157 64.0657 239.219 71.692 231.09 76.6295L223.642 79.5627V80.076C224.421 80.8093 226.247 83.4737 229.118 88.069C228.048 88.7045 227.22 89.0223 226.636 89.0223L227.147 90.0489V90.5622C221.16 90.8555 217.193 91.0022 215.246 91.0022V91.5155C215.343 92.1999 215.684 92.5421 216.268 92.5421H228.607L233.061 97.9685C236.322 97.9685 238.464 99.6306 239.486 102.955V103.468C237.831 103.468 237.004 103.81 237.004 104.495C247.275 119.307 252.41 126.934 252.41 127.374C251.096 127.618 250.439 127.936 250.439 128.327C252.726 131.798 253.87 133.802 253.87 134.34L252.921 134.78H228.096C225.322 134.78 220.868 134.633 214.735 134.34C212.106 130.576 210.792 128.571 210.792 128.327C211.327 127.985 212.155 127.814 213.274 127.814V127.374C203.685 112.757 198.891 104.788 198.891 103.468H200.862V102.442C199.84 99.1662 197.868 97.5285 194.948 97.5285C192.368 94.2042 190.372 92.5421 188.961 92.5421H180.053V95.0353C180.053 95.3286 179.907 95.4753 179.615 95.4753L180.053 96.5019V119.381H185.529C186.21 119.479 186.551 119.821 186.551 120.407C186.551 121.043 186.21 121.361 185.529 121.361H180.053C180.053 123.023 179.907 123.854 179.615 123.854L180.053 124.88V130.82C180.053 131.553 179.907 132.213 179.615 132.8C179.907 133.436 180.053 133.949 180.053 134.34L179.104 134.78H158.806C155.496 134.78 150.531 134.633 143.911 134.34V122.387C144.008 121.703 144.349 121.361 144.933 121.361H150.336V119.894H144.933C144.252 119.894 143.911 119.552 143.911 118.867V93.0554L141.428 92.5421H131.571C130.89 92.5421 130.549 92.1999 130.549 91.5155L131.571 91.0022C139.798 90.8555 143.911 90.5377 143.911 90.0489C143.911 89.0223 144.252 88.509 144.933 88.509C145.566 88.8512 146.053 89.0223 146.393 89.0223L146.904 88.069V54.1907C147.002 53.5551 147.318 53.2374 147.854 53.2374H150.336L150.847 50.2309C150.214 49.8886 149.728 49.7175 149.387 49.7175C146.466 50.0597 144.811 50.2309 144.422 50.2309C144.422 47.591 143.108 46.271 140.479 46.271V43.7778L143.911 41.7979V8.43292L146.904 6.45301V1.46659C147.002 0.83107 147.318 0.513308 147.854 0.513308H151.358C152.478 0.513308 153.305 0.342205 153.841 0ZM180.053 26.3987C180.053 26.692 179.907 26.8387 179.615 26.8387C179.907 30.163 180.053 32.6562 180.053 34.3183V37.3248C180.053 37.667 179.907 37.8381 179.615 37.8381L180.053 38.7914V39.3047C180.053 42.2868 178.739 43.7778 176.11 43.7778V46.7844C178.739 46.9799 180.053 47.4688 180.053 48.2509H179.615C179.907 48.8865 180.053 49.3753 180.053 49.7175H191.954V50.7442H187.5L185.529 53.2374H183.046V58.2238H198.379C205.048 58.2238 209.526 56.5616 211.814 53.2374C215.075 53.2374 216.706 52.0641 216.706 49.7175H212.252L211.303 49.2776C211.936 46.9799 212.252 44.9756 212.252 43.2645V39.3047C212.252 35.8338 209.283 32.0206 203.344 27.8653C202.614 27.1809 199.329 26.692 193.487 26.3987L192.465 26.8387L191.443 26.3987C191.151 26.3987 191.005 26.5454 191.005 26.8387C189.837 26.5454 189.155 26.3987 188.961 26.3987C186.089 26.692 184.458 26.8387 184.069 26.8387C182.219 26.5454 180.88 26.3987 180.053 26.3987ZM151.869 50.2309V50.7442H152.819V50.2309H151.869ZM154.352 50.2309V50.7442H155.301V50.2309H154.352ZM247.956 49.7175H249.416V50.7442H247.956V49.7175ZM251.388 49.7175H252.921V50.7442H251.388V49.7175ZM253.87 49.7175H258.324V50.7442H253.87V49.7175ZM181.586 89.0223L180.564 88.509C180.564 89.1934 180.248 89.5356 179.615 89.5356C179.907 90.1711 180.053 90.66 180.053 91.0022C183.363 90.7089 185.845 90.5622 187.5 90.5622H188.011L188.961 91.0022L191.005 87.5557C189.691 84.5736 188.863 83.0826 188.523 83.0826H184.069C183.387 83.0826 182.876 85.0625 182.535 89.0223H181.586ZM166.691 91.0022V91.5155C166.789 92.1999 167.129 92.5421 167.713 92.5421H176.621C177.254 92.5421 177.57 92.1999 177.57 91.5155V91.0022H166.691ZM206.338 128.327H207.287C207.287 128.865 207.628 129.525 208.309 130.307V131.334C207.871 131.285 207.214 130.454 206.338 128.84V128.327ZM209.77 133.313H210.281V134.34H209.77V133.313Z" fill="white"/>
<path d="M292.13 0.0733297H321.262C321.846 0.171103 324.499 7.11298 329.221 20.899L330.681 21.8523H335.646C336.522 22.5367 340.465 33.145 347.474 53.6773L350.979 63.5769L349.957 64.0902H338.567V64.6035C338.567 66.3634 339.564 67.3411 341.56 67.5367L344.554 67.0967H344.992C346.403 67.83 351.028 80.3938 358.865 104.788L357.842 105.301C356.723 104.959 356.066 104.788 355.871 104.788C355.579 104.788 355.433 104.959 355.433 105.301L351.928 104.788H349.446C348.813 104.886 348.497 105.228 348.497 105.815C350.249 111.095 351.393 113.734 351.928 113.734H361.858C362.491 113.832 362.807 114.174 362.807 114.761V115.201C362.807 115.885 362.491 116.228 361.858 116.228H350.979C350.2 116.228 349.543 116.056 349.008 115.714C348.424 116.056 347.742 116.228 346.963 116.228H336.595L333.164 115.714L332.652 116.741C332.75 117.376 333.091 117.694 333.675 117.694H363.318C364.292 117.694 366.434 123.169 369.744 134.12V134.633H332.652C332.117 134.633 330.146 128.987 326.738 117.694H300.526C299.796 117.694 299.139 117.548 298.555 117.254C297.971 117.548 297.314 117.694 296.583 117.694C295.902 117.694 295.561 117.376 295.561 116.741C295.902 116.741 296.072 116.57 296.072 116.228C302.157 115.885 306.611 115.714 309.434 115.714H325.278C325.911 115.714 326.227 115.397 326.227 114.761L324.767 113.734H314.837C314.448 113.734 313.474 112.243 311.916 109.261H307.974V109.775C307.974 110.068 308.12 111.388 308.412 113.734H303.958C303.617 113.734 302.473 112.243 300.526 109.261H271.832C269.933 109.261 268.789 110.581 268.4 113.221L269.349 113.734H277.746C278.427 113.832 278.768 114.174 278.768 114.761V115.201L272.343 134.633H234.74V134.12L241.677 114.248L226.855 113.734C226.173 113.734 225.833 113.417 225.833 112.781C227.488 107.452 228.656 104.788 229.337 104.788H242.699C245.084 104.788 246.715 101.977 247.591 96.3552C248.175 96.3064 249.83 92.1754 252.556 83.9625L258.032 68.05V67.5367H253.067C252.386 64.4568 252.264 63.3813 252.702 64.3102C252.264 63.8213 256.669 63.5769 265.918 63.5769C266.404 63.4791 269.033 56.7083 273.803 43.2645L280.739 22.8789V22.3656H278.257V21.8523C280.739 13.3949 283.392 6.28191 286.215 0.513308L292.13 0.0733297ZM307.974 43.2645C304.42 57.1483 301.938 64.0902 300.526 64.0902H289.136C288.503 64.0902 288.016 65.0923 287.676 67.0967H290.669C292.616 67.2922 293.59 67.7811 293.59 68.5633C290.28 78.7806 288.625 84.0847 288.625 84.4758L291.107 84.9158L294.612 84.4758C295.245 84.7691 295.732 84.9158 296.072 84.9158L299.066 84.4758C299.358 84.4758 299.504 84.6225 299.504 84.9158L301.987 84.4758H310.383C310.724 84.4758 310.894 84.6225 310.894 84.9158C314.204 84.6225 315.859 84.1336 315.859 83.4492V82.9359C314.642 80.736 313.158 76.434 311.405 70.0299C311.405 68.3188 309.921 67.3411 306.951 67.0967C306.951 66.2656 306.611 65.4345 305.929 64.6035C306.075 63.9191 306.416 63.5769 306.951 63.5769H315.348C313.693 57.5149 311.551 50.7442 308.923 43.2645H307.974Z" fill="white"/>
<path d="M403.33 0C403.671 0 403.841 0.171103 403.841 0.513308L405.74 0C421.219 0 434.434 3.71537 445.386 11.1461C456.971 11.1461 462.764 12.4416 462.764 15.0326C470.016 20.899 475.638 27.2053 479.63 33.9517V36.8848L461.741 46.0511C458.431 48.0065 456.022 48.9842 454.513 48.9842H449.694C442.441 38.8159 435.846 32.9984 429.907 31.5318C427.96 30.6029 424.894 29.4785 420.708 28.1586C415.012 28.1586 408.417 30.0896 400.921 33.9517V34.465C404.474 34.465 406.251 34.7827 406.251 35.4182C397.538 43.289 393.181 49.4242 393.181 53.824C392.159 55.0462 391.21 58.2727 390.334 63.5035H380.623C379.99 63.6013 379.674 63.9435 379.674 64.5301C379.674 64.9701 380.16 65.4345 381.134 65.9234H389.311C389.798 65.9234 390.601 69.981 391.721 78.0961C393.376 84.6469 396.759 90.4644 401.87 95.5486L400.921 95.9886H395.591V97.0152C399.874 101.219 406.957 104.446 416.838 106.695C420.488 106.695 425.819 105.228 432.828 102.295C439.302 102.295 444.291 100.193 447.796 95.9886H448.234V95.0353H443.415V94.5953C444.632 92.3954 446.725 89.4867 449.694 85.8691H455.462C456.144 85.8691 461.79 88.7778 472.402 94.5953C479.168 94.5953 483.84 96.0375 486.42 98.9218V99.4351C485.106 100.853 484.449 101.659 484.449 101.855L481.09 101.342C478.997 101.342 476.101 104.568 472.402 111.021C470.99 111.706 468.41 112.048 464.662 112.048H463.713C463.226 112.048 462.739 112.512 462.253 113.441H468.532V114.908C458.261 124.489 449.572 129.842 442.466 130.967C437.355 133.509 431.562 134.78 425.088 134.78H414.939C397.367 134.78 381.742 128.498 368.064 115.934C366.701 114.272 364.292 113.441 360.836 113.441C359.716 113.783 359.084 113.954 358.938 113.954C357.623 113.466 356.966 112.977 356.966 112.488C357.064 111.852 357.404 111.534 357.988 111.534C358.329 111.534 358.792 111.706 359.376 112.048L362.296 111.534H363.245V111.021C357.453 103.053 354.557 98.2129 354.557 96.5019V95.9886H359.376L361.785 95.5486C358.037 86.9446 355.944 78.2184 355.506 69.3699H349.3V67.9033H354.557C355.189 67.9033 355.506 67.5855 355.506 66.95C355.506 66.2656 355.189 65.9234 354.557 65.9234H345.868C345.235 65.9234 344.919 65.6056 344.919 64.9701V63.5035C346.379 63.5035 347.353 63.3569 347.839 63.0636L348.789 63.5035C353.608 63.5035 356.017 62.868 356.017 61.597C356.65 52.4552 359.23 43.8756 363.756 35.8582V35.4182C363.756 34.7827 363.44 34.465 362.807 34.465H357.988L356.966 33.9517C362.759 23.6855 369.354 16.5725 376.753 12.6127C376.753 11.9772 376.437 11.6594 375.804 11.6594H366.166V11.1461C369.914 7.77295 376.68 4.6931 386.464 1.90657C391.672 0.977729 396.345 0.513308 400.483 0.513308H401.432C402.162 0.513308 402.795 0.342205 403.33 0ZM371.934 67.9033V69.3699H373.394C374.027 69.3699 374.344 69.0277 374.344 68.3433L373.394 67.9033H371.934ZM423.117 95.0353H427.498C428.131 95.1331 428.447 95.4508 428.447 95.9886C424.407 99.5573 421.511 101.342 419.758 101.342H415.889V100.388C417.105 100.388 419.515 98.604 423.117 95.0353Z" fill="white"/>
<path d="M485.763 0H520.007C520.64 0 521.126 2.00435 521.467 6.01304C523.122 6.01304 523.95 6.3308 523.95 6.96632V17.4525L520.007 20.459H515.553C514.871 20.5568 514.531 20.8745 514.531 21.4123V22.4389H520.007C520.64 22.5367 520.956 22.8544 520.956 23.3922V75.2363L520.518 76.1896C522.806 76.6784 523.95 77.1917 523.95 77.7295V107.575C524.047 108.259 524.388 108.601 524.972 108.601C525.605 108.601 525.921 108.43 525.921 108.088L530.886 108.601H568.123L569.072 109.115L568.634 111.608V126.567C568.634 127.203 568.293 127.52 567.612 127.52L564.618 127.007C564.083 127.349 563.255 127.52 562.136 127.52V128.547C562.379 128.547 563.377 128.694 565.13 128.987L568.123 128.547L568.634 129.5V133.973C568.634 134.658 568.293 135 567.612 135H501.607C498.833 135 494.379 134.829 488.246 134.487V130.014C488.246 129.525 487.759 129.036 486.785 128.547H482.331V127.52H486.785C487.223 127.52 487.71 127.032 488.246 126.054V78.2428C485.958 76.9718 484.814 76.1407 484.814 75.7496V23.3922C484.814 22.7567 482.818 22.2678 478.827 21.9256V21.4123C481.893 21.3145 484.546 20.3123 486.785 18.4058C487.759 18.4058 488.246 18.088 488.246 17.4525V8.43292C488.246 6.47746 487.102 5.49973 484.814 5.49973V1.02662C484.911 0.342205 485.228 0 485.763 0Z" fill="white"/>
<path d="M590.392 0H660.632C661.07 0 661.557 0.488865 662.092 1.46659V18.4058C662.092 18.8457 662.579 19.3346 663.553 19.8724H665.524C666.303 19.8724 666.984 19.7012 667.568 19.359C669.175 19.799 669.978 20.2879 669.978 20.8256V21.8523C669.978 22.4878 669.661 22.8055 669.029 22.8055H666.546V25.2987C666.546 25.9832 666.205 26.3254 665.524 26.3254H631.426C627.97 26.3254 622.713 26.4965 615.655 26.8387V31.3118C615.753 31.9473 616.069 32.2651 616.604 32.2651H621.058C621.74 32.3628 622.081 32.7051 622.081 33.2917V54.6306H665.086C665.719 54.7284 666.035 55.0462 666.035 55.5839V63.0636C666.035 63.6991 664.234 64.1879 660.632 64.5301L659.61 64.0168L656.689 64.5301C656.008 64.1879 655.497 64.0168 655.156 64.0168L654.645 66.51V74.943L655.156 79.9294L653.696 80.956H611.64C611.64 82.0804 610.496 82.7404 608.208 82.9359L605.214 82.4226H604.265C603.584 82.5204 603.243 82.8626 603.243 83.4492V83.8892H606.236L611.201 84.4025V100.828C611.201 102.588 612.175 103.566 614.122 103.762C614.122 104.495 614.292 105.155 614.633 105.741C614.292 106.328 614.122 106.988 614.122 107.721V108.235H661.143C661.776 108.235 662.263 109.897 662.603 113.221H669.978C670.659 113.319 671 113.637 671 114.174C671 114.859 670.659 115.201 669.978 115.201H664.575L662.092 115.714V134.56H581.047C580.706 134.56 580.535 134.389 580.535 134.047L579.513 134.56H576.593C576.106 134.56 575.595 134.071 575.059 133.093V132.067C575.059 131.725 575.23 131.553 575.571 131.553L575.059 130.6V118.647L572.577 118.207H568.196C567.515 118.207 567.174 117.865 567.174 117.181V116.154C567.271 115.519 567.612 115.201 568.196 115.201C573.696 114.859 577.98 114.688 581.047 114.688H583.018V113.734L578.053 113.221H576.082C575.4 113.221 575.059 112.732 575.059 111.754L575.571 110.728C575.23 110.141 575.059 109.481 575.059 108.748C575.059 108.308 576.057 107.819 578.053 107.281C578.394 106.695 578.564 106.01 578.564 105.228C578.564 103.81 577.396 103.004 575.059 102.808V85.8691L575.571 84.9158L574.621 84.4025H568.196C567.515 84.4025 567.174 84.0847 567.174 83.4492C567.271 82.7648 567.612 82.4226 568.196 82.4226H574.11C574.743 82.4226 575.059 82.0804 575.059 81.396V65.0435C575.059 64.359 575.571 64.0168 576.593 64.0168C577.615 64.0168 580.73 63.8702 585.939 63.5769V33.2917C585.939 32.2651 584.138 31.7518 580.535 31.7518H579.513V23.8322L583.018 21.8523V20.8256C583.018 20.1901 582.677 19.8724 581.996 19.8724H576.082C575.4 19.8724 575.059 19.5301 575.059 18.8457V1.46659L575.571 0.513308C582.19 0.171103 587.131 0 590.392 0ZM571.628 59.6171H574.11C574.743 59.7148 575.059 60.0326 575.059 60.5703V63.0636C575.059 63.6991 574.743 64.0168 574.11 64.0168H571.628C570.946 64.0168 570.606 63.6991 570.606 63.0636V60.5703C570.752 59.9348 571.092 59.6171 571.628 59.6171ZM589.443 114.688H593.897V113.734H590.392C589.76 113.832 589.443 114.15 589.443 114.688ZM642.817 115.201V117.181C642.914 117.865 643.255 118.207 643.839 118.207H650.702C650.702 117.816 650.872 117.303 651.213 116.668C650.872 116.032 650.702 115.543 650.702 115.201H642.817Z" fill="white"/>
</svg>
